<?xml version="1.0" encoding="UTF-8"?>
<svg width="28px" height="28px" viewBox="0 0 28 28" version="1.1" xmlns="http://www.w3.org/2000/svg" xmlns:xlink="http://www.w3.org/1999/xlink">
    <title>btnfour</title>
    <defs>
        <path d="M17.717662,0 C17.6885621,0.000703152467 17.6580766,0.0073831009 17.6272446,0.0203914215 L17.6272446,0.0203914215 L9.43840336,3.53896637 C9.09647992,3.68592523 8.72026021,3.68451893 8.37902962,3.53509903 L8.37902962,3.53509903 L0.37414115,0.0288292511 C0.182567024,-0.0551974687 0.00415712389,0.121996953 0,0.331887964 L0,0.331887964 L0,0.346654166 C0.00103928097,0.398687449 0.0128177986,0.452478612 0.038106969,0.504511895 L0.038106969,0.504511895 L8.27440867,17.5099027 C8.42995439,17.8308918 8.70571027,17.9943748 8.98354472,18 L8.98354472,18 L9.01299101,18 C9.29082546,17.9943748 9.56658134,17.8308918 9.72212706,17.5099027 L9.72212706,17.5099027 L17.9615466,0.497128794 C17.9868358,0.445095512 17.9989607,0.391304348 18,0.338919489 L18,0.338919489 L18,0.322746982 C17.9961893,0.152232509 17.8777113,0.00386733857 17.7301334,0 L17.7301334,0 L17.717662,0 Z" id="path-1"></path>
    </defs>
    <g id="页面-1" stroke="none" stroke-width="1" fill="none" fill-rule="evenodd">
        <g id="报告主页-进阶(切图)" transform="translate(-514.000000, -971.000000)">
            <g id="总练习时长" transform="translate(187.000000, 876.000000)">
                <g id="编组-2" transform="translate(327.000000, 95.000000)">
                    <circle id="椭圆形" fill="#FFFFFF" cx="14" cy="14" r="14"></circle>
                    <g id="编组" transform="translate(14.000000, 13.000000) scale(1, -1) translate(-14.000000, -13.000000) translate(5.000000, 4.000000)">
                        <mask id="mask-2" fill="white">
                            <use xlink:href="#path-1"></use>
                        </mask>
                        <g id="Clip-2"></g>
                        <path d="M17.717662,0 C17.6885621,0.000703152467 17.6580766,0.0073831009 17.6272446,0.0203914215 L17.6272446,0.0203914215 L9.43840336,3.53896637 C9.09647992,3.68592523 8.72026021,3.68451893 8.37902962,3.53509903 L8.37902962,3.53509903 L0.37414115,0.0288292511 C0.182567024,-0.0551974687 0.00415712389,0.121996953 0,0.331887964 L0,0.331887964 L0,0.346654166 C0.00103928097,0.398687449 0.0128177986,0.452478612 0.038106969,0.504511895 L0.038106969,0.504511895 L8.27440867,17.5099027 C8.42995439,17.8308918 8.70571027,17.9943748 8.98354472,18 L8.98354472,18 L9.01299101,18 C9.29082546,17.9943748 9.56658134,17.8308918 9.72212706,17.5099027 L9.72212706,17.5099027 L17.9615466,0.497128794 C17.9868358,0.445095512 17.9989607,0.391304348 18,0.338919489 L18,0.338919489 L18,0.322746982 C17.9961893,0.152232509 17.8777113,0.00386733857 17.7301334,0 L17.7301334,0 L17.717662,0 Z" id="Fill-1" fill="#196EE8" mask="url(#mask-2)"></path>
                    </g>
                </g>
            </g>
        </g>
    </g>
</svg>