<?xml version="1.0" encoding="UTF-8"?>
<svg width="160px" height="320px" viewBox="0 0 240 400" version="1.1" xmlns="http://www.w3.org/2000/svg" xmlns:xlink="http://www.w3.org/1999/xlink">
    <!-- 9900 9900 -->
    <title>btnthree</title>

    <g id="训练场1">
      <line x1="23.746" y1="6.258" x2="7.894" y2="6.099" style="stroke:rgb(99,99,99);stroke-width: 0.2"/>
      <polyline points="
        7.831,12.936
        14.537,12.992
        14.536,18.194
        16.974,18.238
        16.991,13.049
        23.692,13.105"
        style="fill:white;stroke:rgb(99,99,99);stroke-width:0.2"/>
      <line x1="23.746" y1="6.258" x2="23.692" y2="13.105"
        stroke-dasharray="0.4,0.4" style="stroke:rgb(99,99,99);stroke-width: 0.2"/>
      <line x1="7.894" y1="6.099" x2="7.831" y2="12.936"
        stroke-dasharray="0.4,0.4" style="stroke:rgb(99,99,99);stroke-width: 0.2"/>
      <line x1="14.537" y1="12.992" x2="16.991" y2="13.049"
        stroke-dasharray="0.4,0.4" style="stroke:rgb(99,99,99);stroke-width: 0.2"/>
      <text text-anchor="middle" dominant-baseline="central" fill="red" transform="translate(15.788 9.598) scale(0.15 0.15)">1</text>
    </g>


    <g id="训练场2">
      <line x1="23.723" y1="6.385" x2="7.899" y2="6.147" style="stroke:rgb(99,99,99);stroke-width: 0.2"/>
      <polyline points="
        7.873,13.019
        14.572,13.093
        14.573,18.28
        16.974,18.316
        17.005,13.133
        23.742,13.224"
        style="fill:white;stroke:rgb(99,99,99);stroke-width:0.2"/>
      <line x1="23.723" y1="6.385" x2="23.742" y2="13.224"
        stroke-dasharray="0.4,0.4" style="stroke:rgb(99,99,99);stroke-width: 0.2"/>
      <line x1="7.899" y1="6.147" x2="7.873" y2="13.019"
        stroke-dasharray="0.4,0.4" style="stroke:rgb(99,99,99);stroke-width: 0.2"/>
      <line x1="14.572" y1="13.093" x2="17.005" y2="13.133"
        stroke-dasharray="0.4,0.4" style="stroke:rgb(99,99,99);stroke-width: 0.2"/>
      <text text-anchor="middle" dominant-baseline="central" fill="red" transform="translate(15.798 9.702) scale(0.15 0.15)">2</text>
    </g>

    <g id="训练场3">
      <line x1="23.827" y1="5.859" x2="7.952" y2="5.977" style="stroke:rgb(99,99,99);stroke-width: 0.2"/>
      <polyline points="
        7.982,12.845
        14.667,12.774
        14.668,17.974
        17.089,17.994
        17.114,12.765
        23.817,12.711"
        style="fill:white;stroke:rgb(99,99,99);stroke-width:0.2"/>
      <line x1="23.827" y1="5.859" x2="23.817" y2="12.711"
        stroke-dasharray="0.4,0.4" style="stroke:rgb(99,99,99);stroke-width: 0.2"/>
      <line x1="7.952" y1="5.977" x2="7.982" y2="12.845"
        stroke-dasharray="0.4,0.4" style="stroke:rgb(99,99,99);stroke-width: 0.2"/>
      <line x1="14.667" y1="12.774" x2="17.114" y2="12.765"
        stroke-dasharray="0.4,0.4" style="stroke:rgb(99,99,99);stroke-width: 0.2"/>
      <text text-anchor="middle" dominant-baseline="central" fill="red" transform="translate(15.905 9.352) scale(0.15 0.15)">3</text>
    </g>
    
</svg>