<?xml version="1.0" standalone="no"?>
<!DOCTYPE svg PUBLIC "-//W3C//DTD SVG 1.1//EN" "http://www.w3.org/Graphics/SVG/1.1/DTD/svg11.dtd" >
<svg xmlns="http://www.w3.org/2000/svg">
  <metadata>Created by iconfont</metadata>
  <defs>
  <font id="iconfont" horiz-adv-x="1024">
    <font-face
      font-family="iconfont"
      font-weight="400"
      font-stretch="normal"
      units-per-em="1024"
      ascent="896"
      descent="-128"
    />
      <missing-glyph />
      
      <glyph glyph-name="xiugaishijian-copy" unicode="&#58902;" d="M887.786-125.4h-757.804c-69.761 0-126.276 56.637-126.276 126.397v758.23c0 69.822 57.419 132.402 127.121 132.402h508.511v-63.547h-508.511c-34.85 0-63.968-33.886-63.968-68.854v-758.262c0-34.91 28.273-63.212 63.094-63.212h757.835c34.82 0 69.341 29.058 69.341 63.968v508.512h63.605v-508.486c0-69.853-63.242-127.153-132.946-127.153zM969.708 729.959l-111.61 111.673c-24.682 24.68-64.635 24.68-89.315 0l-491.163-491.497c-9.234-9.23-13.849-20.849-16.143-32.768l-136.716-276.63c-11.434-31.109 13.516-59.050 44.597-44.659l276.51 136.776c11.919 2.355 23.505 6.942 32.676 16.172l491.163 491.558c24.653 24.68 24.653 64.691 0 89.374zM207.56 56.577c-15.541-7.148-29.57 7.755-22.297 22.33l103.345 170.842 89.676-89.706-170.722-103.465zM433.89 193.716c-41.852 41.88-99.755 99.843-111.612 111.73l356.441 356.649 112.426-110.946-357.254-357.434zM902.756 662.914l-66.984-67.046-110.013 113.303 65.388 65.445c12.279 12.312 32.347 12.312 44.626 0l66.986-67.015c12.311-12.402 12.311-32.375 0-44.687z"  horiz-adv-x="1024" />
      
      <glyph glyph-name="ordercancle" unicode="&#59001;" d="M863.232 766.976h-160.768v25.6c0 15.872-12.8 28.672-28.672 28.672H351.744c-15.872 0-28.672-12.8-28.672-28.672v-25.6H162.304c-15.872 0-28.672-12.8-28.672-28.672v-700.928c0-15.872 12.8-28.672 28.672-28.672h700.416c16.384 0 28.672 12.8 29.184 28.672v701.44c0 15.36-12.8 28.16-28.672 28.16z m-482.816-2.56H645.12v-48.128H380.416v48.128zM829.44 71.67999999999995H196.096V705.024h126.976v-17.408c0-15.872 12.8-28.672 28.672-28.672h322.048c15.872 0 28.672 12.288 28.672 28.672v17.408H829.44V71.67999999999995zM554.496 363.00800000000004l109.568 109.568c11.776 11.776 11.776 30.72 0 42.496-11.776 11.776-30.72 11.776-42.496 0L512 405.504 402.432 515.5840000000001c-11.776 11.776-30.72 11.776-42.496 0-11.776-11.776-11.776-30.72 0-42.496L469.504 363.52l-109.568-109.568c-11.776-11.776-11.776-30.72 0-42.496 5.632-5.632 13.312-8.704 21.504-8.704 7.68 0 15.36 3.072 21.504 8.704l109.568 109.568 109.568-109.568c5.632-5.632 13.312-8.704 21.504-8.704 7.68 0 15.36 3.072 21.504 8.704 11.776 11.776 11.776 30.72 0 42.496l-110.592 109.056z"  horiz-adv-x="1024" />
      
      <glyph glyph-name="wenjian" unicode="&#59283;" d="M544 768h-288c-19.2 0-32-12.8-32-32v-704c0-19.2 12.8-32 32-32h512c19.2 0 32 12.8 32 32v480h-192c-35.2 0-64 28.8-64 64v192z m64-12.8v-179.2h179.2l-179.2 179.2z m-352 76.8h352c9.6 0 16-3.2 22.4-9.6l224-224c6.4-6.4 9.6-12.8 9.6-22.4v-544c0-54.4-41.6-96-96-96h-512c-54.4 0-96 41.6-96 96v704c0 54.4 41.6 96 96 96z m64-352h160c19.2 0 32-12.8 32-32s-12.8-32-32-32h-160c-19.2 0-32 12.8-32 32s12.8 32 32 32z m0-128h384c19.2 0 32-12.8 32-32s-12.8-32-32-32h-384c-19.2 0-32 12.8-32 32s12.8 32 32 32z m0-128h384c19.2 0 32-12.8 32-32s-12.8-32-32-32h-384c-19.2 0-32 12.8-32 32s12.8 32 32 32z"  horiz-adv-x="1024" />
      
      <glyph glyph-name="icon_close1" unicode="&#58932;" d="M149.82386 746.14318c-199.743813-199.679813-199.743813-524.799508 0-724.47932A510.239522 510.239522 0 0 1 509.663522-128h4.671996a510.623521 510.623521 0 0 1 359.935662 149.66386c199.679813 199.679813 199.679813 524.799508-0.128 724.47932A510.239522 510.239522 0 0 1 511.99952 895.96704C380.799643 895.99904 249.599766 846.079087 149.82386 746.14318z m546.879487-116.95989a48.831954 48.831954 0 0 0 69.023935-69.119935l-188.959823-189.023823 180.607831-180.79983a48.895954 48.895954 0 0 0 0-69.119936 48.703954 48.703954 0 0 0-69.023935 0l-180.575831 180.575831-180.575831-180.575831a48.959954 48.959954 0 1 0-69.119935 68.991936l180.447831 180.70383-180.479831 180.575831a48.831954 48.831954 0 0 0 0 69.119935 48.703954 48.703954 0 0 0 69.055935 0l180.447831-180.57583 189.119823 189.247822z"  horiz-adv-x="1024" />
      
      <glyph glyph-name="carche" unicode="&#59176;" d="M1023.948805 498.625337l0-455.941606C1023.948805 26.608539 1018.624538 13.29787 1007.976002 2.649335 997.327467-7.9992 983.914409-13.323468 967.941606-13.323468L909.272273-13.323468c-15.972803 0-29.283472 5.324268-40.034397 15.972803C858.589341 13.29787 853.265073 26.608539 853.265073 42.683732L853.265073 101.353065 170.734927 101.353065l0-58.669333c0-15.972803-5.324268-29.283472-15.972803-40.034397C144.011199-7.9992 130.70053-13.323468 114.727727-13.323468L56.058394-13.323468c-15.972803 0-29.283472 5.324268-40.034397 15.972803C5.375462 13.29787 0.051195 26.608539 0.051195 42.683732L0.051195 498.625337l120.0008 341.265073C121.792621 848.79832 125.376262 856.784722 130.70053 863.952005c5.324268 7.064894 11.570043 12.389161 18.634937 15.972803C156.50275 885.249075 164.079592 889.242276 172.065993 891.90441 180.052395 894.566543 189.369863 895.89761 200.018398 895.89761l623.963204 0c8.907909 0 17.30387-1.331067 25.290271-3.993201 7.986401-2.662134 15.563244-6.655334 22.628137-11.979602C879.067293 876.341166 885.722628 870.914509 891.968403 863.952005c6.245775-7.064894 10.238976-15.153685 11.979602-23.959204L1023.948805 498.625337zM909.272273 554.632537l-85.290671 255.974403L200.018398 810.606939l-85.290671-255.974403L909.272273 554.632537zM200.018398 271.934407c10.648535 0 21.29707 2.252575 32.047995 6.655334 10.648535 4.40276 19.556444 10.238976 26.621338 17.30387 7.064894 8.907909 13.310669 18.225377 18.634937 27.952405C282.646935 333.675432 285.309069 344.835916 285.309069 357.327467c0 10.648535-2.662134 21.29707-7.986401 31.945605-5.324268 10.648535-11.570043 19.556444-18.634937 26.621338-7.064894 7.064894-15.972803 13.310669-26.621338 18.634937C221.315468 439.956004 210.666933 442.618138 200.018398 442.618138c-12.491551 0-23.549645-2.662134-33.379062-7.986401C156.912309 429.307469 147.594841 422.959304 138.686931 415.9968c-7.064894-7.064894-12.90111-15.972803-17.30387-26.621338C116.877912 378.624538 114.727727 367.976002 114.727727 357.327467c0-12.491551 2.252575-23.652035 6.655334-33.379062 4.40276-9.829417 10.238976-19.146885 17.30387-27.952405 8.907909-7.064894 18.225377-12.90111 27.952405-17.30387C176.468753 274.186981 187.629237 271.934407 200.018398 271.934407zM823.981602 271.934407c12.491551 0 23.549645 2.252575 33.379062 6.655334 9.727027 4.40276 19.146885 10.238976 27.952405 17.30387 7.064894 8.907909 12.90111 18.225377 17.30387 27.952405C907.122088 333.675432 909.272273 344.835916 909.272273 357.327467c0 10.648535-2.252575 21.29707-6.655334 31.945605-4.40276 10.648535-10.238976 19.556444-17.30387 26.621338-8.907909 7.064894-18.225377 13.310669-27.952405 18.634937C847.531247 439.956004 836.370763 442.618138 823.981602 442.618138c-10.648535 0-21.29707-2.662134-32.047995-7.986401C781.285071 429.307469 772.377162 422.959304 765.312269 415.9968c-7.064894-7.064894-13.310669-15.972803-18.634937-26.621338C741.353065 378.624538 738.690931 367.976002 738.690931 357.327467c0-12.491551 2.662134-23.652035 7.986401-33.379062 5.324268-9.829417 11.570043-19.146885 18.634937-27.952405 7.064894-7.064894 15.972803-12.90111 26.621338-17.30387C802.684532 274.186981 813.333067 271.934407 823.981602 271.934407z"  horiz-adv-x="1024" />
      
      <glyph glyph-name="shijian2" unicode="&#59197;" d="M480 832C215.04 832 0 616.96 0 352 0 87.04 215.04-128 480-128S960 87.04 960 352C960 616.96 744.96 832 480 832zM736 320l-256 0C462.08 320 448 334.08 448 352l0 256C448 625.92 462.08 640 480 640S512 625.92 512 608L512 384l224 0C753.92 384 768 369.92 768 352 768 334.08 753.92 320 736 320z"  horiz-adv-x="1024" />
      
      <glyph glyph-name="icon_xuniche" unicode="&#59056;" d="M3032.053961 879.214431c23.853176 15.801725 58.679216 2.108235 59.984314-22.979764l0.040156-1.455687V-86.839216c0-17.197176-16.594824-31.131608-37.064784-31.131608-19.857569 0-36.060863 13.101176-37.024627 29.57553l-0.050196 1.556078V790.578196L2644.128627 542.991059l-45.618196-230.771451c-2.861176-14.506667-17.387922-25.268706-34.695529-26.001569l-1.867294-0.030117h-774.284549c-13.071059 0-25.118118 5.772549-31.794196 15.119058l-1.003922 1.505883-237.377255 378.739451H855.250824L525.101176 172.212706 827.562667-64.050196c14.496627-11.314196 15.761569-30.097569 3.242666-42.706824l-1.345255-1.285019c-13.472627-12.167529-35.84-13.241725-50.858666-2.720628l-1.525961 1.124392-323.523765 252.697099c-11.90651 9.296314-15.159216 23.963608-8.232157 36.161254l0.913569 1.515922 354.43451 546.805961c6.174118 9.517176 17.749333 15.61098 30.529255 16.203294l2.027921 0.040157h706.640314c13.071059 0 25.128157-5.772549 31.794196-15.119059l1.003922-1.505882 237.367215-378.719373h720.474353l42.847373 216.616157c1.395451 7.057569 5.632 13.472627 11.976784 18.201098l1.636392 1.144471L3032.043922 879.214431zM1300.590431 200.844549c-6.826667 17.317647-25.991529 26.302745-43.730823 21.022118l-2.640314-0.90353-337.849725-129.505882c-36.060863-13.834039-27.115922-65.686588 10.209882-68.146196l2.780863-0.100392H2586.503529c19.777255 0 35.829961 15.821804 35.829961 35.328 0 18.612706-14.617098 33.872314-33.159529 35.217568l-2.670432 0.100392H1120.346353l159.834353 61.269334c17.568627 6.726275 26.694275 25.620078 21.323294 43.108392l-0.913569 2.610196z"  horiz-adv-x="3523" />
      
      <glyph glyph-name="icon_monichejinduxiugai" unicode="&#59054;" d="M881.728-46.592a11.349333 11.349333 0 0 0-11.306667-11.306667H189.525333a56.789333 56.789333 0 0 0-56.746666 56.746667V770.474667a56.789333 56.789333 0 0 0 56.746666 56.746666h680.896a11.349333 11.349333 0 0 0 11.306667-11.306666v-862.506667zM870.421333 895.296H189.525333A124.992 124.992 0 0 1 64.704 770.474667v-771.626667a124.992 124.992 0 0 1 124.821333-124.821333h680.896a79.488 79.488 0 0 1 79.381334 79.36V815.914667A79.488 79.488 0 0 1 870.464 895.296zM775.744 105.962667H463.893333a35.605333 35.605333 0 0 1-31.616-17.706667 36.117333 36.117333 0 0 1 0-36.416c6.570667-11.242667 18.666667-18.005333 31.616-17.664H775.744c19.690667 0 35.648 16.064 35.648 35.882667 0 19.84-15.957333 35.882667-35.626667 35.882666M555.370667 233.962667m35.946666 0l184.106667 0q35.946667 0 35.946667-35.946667l0 0q0-35.946667-35.946667-35.946667l-184.106667 0q-35.946667 0-35.946666 35.946667l0 0q0 35.946667 35.946666 35.946667ZM580.757333 686.997333l-298.517333-430.72-20.245333-145.28 130.517333 71.168 296.149333 428.629334-107.925333 76.202666z m-332.138666-661.333333a48 48 0 0 0-28.586667 9.386667 53.269333 53.269333 0 0 0-21.973333 45.994666l25.514666 181.781334c1.301333 9.216 4.714667 18.133333 9.856 25.728L528.149333 722.496c20.544 30.229333 60.928 37.589333 90.282667 16.426667h0.021333l106.517334-76.928c14.229333-10.24 23.701333-25.6 26.688-43.2 3.029333-17.493333-0.853333-35.498667-10.773334-50.005334L446.357333 134.869333a59.157333 59.157333 0 0 0-19.989333-18.389333l-154.176-85.525333c-7.424-3.413333-15.445333-5.205333-23.573333-5.290667z"  horiz-adv-x="1024" />
      
      <glyph glyph-name="icon_monicheyuyuechaxun" unicode="&#59055;" d="M881.728-46.592a11.349333 11.349333 0 0 0-11.306667-11.306667H189.525333a56.789333 56.789333 0 0 0-56.746666 56.746667V770.453333a56.789333 56.789333 0 0 0 56.746666 56.746667h680.896a11.349333 11.349333 0 0 0 11.306667-11.306667v-862.506666z m-11.306667 941.866667H189.525333a124.992 124.992 0 0 1-124.8-124.8v-771.626667a124.992 124.992 0 0 1 124.8-124.842667h680.896a79.488 79.488 0 0 1 79.402667 79.402667V815.914667A79.488 79.488 0 0 1 870.4 895.253333zM765.952 101.589333H454.144a35.605333 35.605333 0 0 1-31.616-17.664 36.117333 36.117333 0 0 1 0-36.437333c6.570667-11.221333 18.666667-18.005333 31.616-17.664h311.808c19.690667 0 35.648 16.064 35.648 35.882667 0 19.84-15.957333 35.882667-35.626667 35.882666M408.064 686.08c-111.573333-47.36-163.626667-176.170667-116.266667-287.722667a218.410667 218.410667 0 0 1 79.189334-96.149333l-113.664-196.842667a36.565333 36.565333 0 0 1 13.418666-49.92l0.021334-0.085333c17.493333-10.069333 39.850667-4.053333 49.92 13.418667l117.269333 203.093333c45.418667-11.989333 94.997333-9.536 141.589333 10.24 111.552 47.36 163.584 176.149333 116.245334 287.722667-47.36 111.552-176.170667 163.584-287.722667 116.245333z m28.586667-67.328a146.282667 146.282667 0 1 0 114.304-269.312 146.282667 146.282667 0 0 0-114.325334 269.312z"  horiz-adv-x="1024" />
      
      <glyph glyph-name="zhudongfuwu_icon_daichuli" unicode="&#59014;" d="M427.170909-88.064c-1.931636 0-3.909818 0.139636-5.841454 0.512C190.673455-45.591273 23.272727 155.252364 23.272727 390.050909 23.272727 657.664 241.035636 875.426909 508.695273 875.426909c104.890182 0 204.823273-32.954182 288.837818-95.255273 14.196364-10.589091 17.221818-30.72 6.632727-44.962909-10.472727-14.312727-30.580364-17.221818-44.916363-6.609454a417.792 417.792 0 0 1-250.554182 82.618182c-232.261818 0-421.189818-188.928-421.189818-421.189819 0-203.752727 145.221818-378.018909 345.367272-414.370909a32.139636 32.139636 0 1 0-5.725091-63.720727M952.017455 456.936727c-14.452364 0-27.554909 9.774545-31.162182 24.343273a429.218909 429.218909 0 0 1-18.432 56.669091 32.116364 32.116364 0 1 0 59.415272 24.273454c8.610909-21.061818 15.732364-43.054545 21.317819-65.396363a32.093091 32.093091 0 0 0-31.138909-39.889455m5.585454-191.069091a32.116364 32.116364 0 0 0-31.650909 37.888c3.653818 19.851636 5.957818 39.796364 6.749091 59.345455 0.744727 17.664 15.662545 32.442182 33.512727 30.72a32.139636 32.139636 0 0 0 30.72-33.489455 496.593455 496.593455 0 0 0-7.796363-68.142545 32.116364 32.116364 0 0 0-31.534546-26.344727m-74.379636-176.174546a32 32 0 0 0-26.274909 50.501818c11.426909 16.477091 21.783273 33.698909 30.650181 51.106909a32.116364 32.116364 0 1 0 57.367273-29.044363 495.592727 495.592727 0 0 0-35.467636-58.88 31.953455 31.953455 0 0 0-26.298182-13.684364m-140.567273-129.559273a32.116364 32.116364 0 0 0-16.314182 59.81091 411.624727 411.624727 0 0 1 49.05891 33.698909 32.139636 32.139636 0 1 0 40.145454-50.222546 498.315636 498.315636 0 0 0-56.599273-38.935273 32.581818 32.581818 0 0 0-16.290909-4.352m-181.853091-59.22909a32.069818 32.069818 0 0 0-3.211636 64.046545 424.029091 424.029091 0 0 1 58.763636 10.216727 32.139636 32.139636 0 0 0 15.476364-62.370909c-22.016-5.469091-44.823273-9.378909-67.700364-11.752727-1.163636-0.069818-2.187636-0.139636-3.328-0.139636M841.960727 826.530909a34.909091 34.909091 0 0 1-69.538909-5.073454l0.256-3.560728 9.169455-73.588363-66.443637-8.145455a34.909091 34.909091 0 0 1-30.673454-35.328l0.256-3.560727a34.909091 34.909091 0 0 1 35.328-30.650182l3.560727 0.232727 101.166546 12.404364a34.909091 34.909091 0 0 1 30.650181 35.374545l-0.232727 3.584-13.498182 108.311273zM294.120727 587.101091a34.909091 34.909091 0 0 0 46.568728-5.818182l2.071272-2.676364 182.458182-259.84h238.917818a34.909091 34.909091 0 0 0 34.746182-31.557818l0.162909-3.351272a34.909091 34.909091 0 0 0-31.557818-34.746182l-3.351273-0.162909H507.089455a34.909091 34.909091 0 0 0-26.251637 11.869091l-2.327273 2.978909-192.884363 274.688a34.909091 34.909091 0 0 0 8.494545 48.64z"  horiz-adv-x="1024" />
      
      <glyph glyph-name="zhudongfuwu_icon_zhikanvip" unicode="&#59009;" d="M839.314286 896a73.142857 73.142857 0 0 0 60.196571-31.597714l236.726857-342.820572a73.142857 73.142857 0 0 0-7.606857-92.379428l-486.546286-503.222857a73.142857 73.142857 0 0 0-103.424-1.792L42.386286 429.165714a73.142857 73.142857 0 0 0-8.045715 92.854857L270.774857 864.402286A73.142857 73.142857 0 0 0 330.934857 896h508.416z m-19.2-109.714286H350.134857l-208.347428-301.750857 447.488-455.350857 439.661714 454.729143L820.114286 786.285714zM766.683429 533.394286a54.857143 54.857143 0 0 0 79.616-75.264l-3.84-4.096-218.038858-208.201143a54.857143 54.857143 0 0 0-71.424-3.730286l-4.096 3.510857-220.818285 208.201143a54.857143 54.857143 0 0 0 70.985143 83.456l4.278857-3.657143 182.893714-172.434285 180.443429 172.214857z"  horiz-adv-x="1170" />
      
      <glyph glyph-name="zhudongfuwu_icon_daipingjia" unicode="&#59010;" d="M977.454545 802.909091a46.545455 46.545455 0 0 0 46.545455-46.545455v-679.866181a46.545455 46.545455 0 0 0-46.545455-46.545455H652.753455l-117.829819-108.264727a23.272727 23.272727 0 0 0-31.883636 0.349091l-112.500364 107.915636H46.545455a46.545455 46.545455 0 0 0-46.545455 46.545455V756.363636a46.545455 46.545455 0 0 0 46.545455 46.545455h930.90909z m-23.272727-69.818182H69.818182v-633.320727h348.788363l101.236364-97.093818 105.704727 97.093818H954.181818V733.090909zM277.341091 397.568m-64 0a64 64 0 1 1 128 0 64 64 0 1 1-128 0ZM533.341091 397.568m-64 0a64 64 0 1 1 128 0 64 64 0 1 1-128 0ZM789.341091 397.568m-64 0a64 64 0 1 1 128 0 64 64 0 1 1-128 0Z"  horiz-adv-x="1024" />
      
      <glyph glyph-name="zhudongfuwu_icon_yiguoqi" unicode="&#59011;" d="M977.454545 826.181818a46.545455 46.545455 0 0 0 46.545455-46.545454v-802.909091a46.545455 46.545455 0 0 0-46.545455-46.545455H46.545455a46.545455 46.545455 0 0 0-46.545455 46.545455V779.636364a46.545455 46.545455 0 0 0 46.545455 46.545454h930.90909z m-23.272727-69.818182H69.818182v-756.363636h884.363636V756.363636zM64 634.181818h917.341091V570.181818H64zM490.658909 506.181818m32 0l0 0q32 0 32-32l0-277.341091q0-32-32-32l0 0q-32 0-32 32l0 277.341091q0 32 32 32ZM522.658909 90.181818m-32 0a32 32 0 1 1 64 0 32 32 0 1 1-64 0Z"  horiz-adv-x="1024" />
      
      <glyph glyph-name="zhudongfuwu_icon_yiwancheng" unicode="&#59012;" d="M512 896c282.763636 0 512-229.236364 512-512s-229.236364-512-512-512S0 101.236364 0 384 229.236364 896 512 896z m0-69.818182C267.799273 826.181818 69.818182 628.200727 69.818182 384s197.981091-442.181818 442.181818-442.181818 442.181818 197.981091 442.181818 442.181818S756.200727 826.181818 512 826.181818zM764.974545 558.336a34.909091 34.909091 0 0 0 51.153455-47.383273l-2.443636-2.629818L435.456 139.869091a34.909091 34.909091 0 0 0-46.336-2.117818l-2.629818 2.350545-176.430546 175.406546a34.909091 34.909091 0 0 0 46.545455 51.898181l2.676364-2.39709 152.040727-151.156364L764.974545 558.336z"  horiz-adv-x="1024" />
      
      <glyph glyph-name="zhudongfuwu_icon_chulizhong" unicode="&#59013;" d="M889.018182 896a58.507636 58.507636 0 0 0 58.507636-58.507636v-906.984728A58.507636 58.507636 0 0 0 889.018182-128H128.325818A58.507636 58.507636 0 0 0 69.818182-69.492364V837.492364A58.507636 58.507636 0 0 0 128.325818 896H889.018182z m-14.638546-73.146182H142.964364v-877.707636H874.356364V822.853818zM517.818182 717.568c172.450909 0 312.250182-139.799273 312.250182-312.226909 0-172.450909-139.799273-312.250182-312.250182-312.250182a34.909091 34.909091 0 0 0 0 69.818182c133.888 0 242.432 108.544 242.432 242.432S651.706182 647.749818 517.818182 647.749818 275.386182 539.229091 275.386182 405.341091a34.909091 34.909091 0 1 0-69.818182 0c0 172.450909 139.799273 312.226909 312.250182 312.226909zM527.778909 234.589091a34.909091 34.909091 0 0 0 53.294546-44.939636l-2.304-2.746182-50.664728-54.155637 48.965818-45.614545a34.909091 34.909091 0 0 0 4.049455-46.615273l-2.304-2.746182a34.909091 34.909091 0 0 0-46.615273-4.026181l-2.722909 2.304-74.565818 69.46909a34.909091 34.909091 0 0 0-4.002909 46.661819l2.327273 2.722909 74.542545 79.709091z"  horiz-adv-x="1024" />
      
      <glyph glyph-name="pifuyemian_icon_dizhi" unicode="&#59006;" d="M448.850865 896c266.545145 0 444.157371-222.078685 444.157371-444.072834 0-133.568452-120.296144-315.06938-360.972968-544.840932a126.805492 126.805492 0 0 0-170.76473-3.973238l-25.02295 22.064155C115.267883 122.824645 4.778031 298.407983 4.778031 451.842629 4.778031 718.472311 182.390257 896 448.850865 896z m0-236.87266a148.024278 148.024278 0 1 1 0-296.048555 148.024278 148.024278 0 0 1 0 296.048555z"  horiz-adv-x="1024" />
      
      <glyph glyph-name="pifuyemian_icon_shijian" unicode="&#59007;" d="M512 896a512 512 0 1 0 0-1024A512 512 0 0 0 512 896z m9.130667-199.082667h-17.834667c-11.093333 0-20.48-8.533333-21.333333-19.712L456.533333 344.661333a21.333333 21.333333 0 0 1 15.701334-22.186666l268.885333-73.386667A21.333333 21.333333 0 0 1 768 269.738667v16.554666a21.333333 21.333333 0 0 1-10.752 18.517334L568.917333 412.416l-26.538666 265.301333a21.333333 21.333333 0 0 1-21.248 19.2z"  horiz-adv-x="1024" />
      
      <glyph glyph-name="icon_shoujihaoma" unicode="&#59004;" d="M934.741333 8.533333a136.533333 136.533333 0 0 0-136.533333-136.533333H204.8a136.533333 136.533333 0 0 0-136.533333 136.533333V759.466667a136.533333 136.533333 0 0 0 136.533333 136.533333h593.408a136.533333 136.533333 0 0 0 136.533333-136.533333v-750.933334z m-34.133333 0V759.466667a102.4 102.4 0 0 1-96.392533 102.229333L798.208 861.866667H204.8a102.4 102.4 0 0 1-102.229333-96.392534L102.4 759.466667v-750.933334a102.4 102.4 0 0 1 96.392533-102.229333L204.8-93.866667h593.408a102.4 102.4 0 0 1 102.229333 96.392534l0.170667 6.007466zM501.486933 108.305067a78.779733 78.779733 0 1 0 0-157.525334 78.779733 78.779733 0 0 0 0 157.525334z m0-34.133334a44.6464 44.6464 0 1 1 0-89.258666 44.6464 44.6464 0 0 1 0 89.258666zM107.656533 226.474667h787.694934v-39.389867H107.656533z"  horiz-adv-x="1024" />
      
      <glyph glyph-name="icon_shenfenzheng" unicode="&#59005;" d="M887.466667 817.220267a136.533333 136.533333 0 0 0 136.533333-136.533334v-593.373866a136.533333 136.533333 0 0 0-136.533333-136.533334H136.533333a136.533333 136.533333 0 0 0-136.533333 136.533334V680.686933a136.533333 136.533333 0 0 0 136.533333 136.533334h750.933334z m0-34.133334H136.533333A102.4 102.4 0 0 1 34.304 686.762667L34.133333 680.686933v-593.373866a102.4 102.4 0 0 1 96.392534-102.229334l6.007466-0.170666h750.933334a102.4 102.4 0 0 1 102.229333 96.3584l0.170667 6.0416V680.686933a102.4 102.4 0 0 1-96.392534 102.229334L887.466667 783.086933zM325.563733 659.694933a68.266667 68.266667 0 0 0 68.266667-68.266666v-99.771734a68.266667 68.266667 0 0 0-68.266667-68.266666H225.792a68.266667 68.266667 0 0 0-68.266667 68.266666V591.428267a68.266667 68.266667 0 0 0 68.266667 68.266666h99.771733z m0-34.133333H225.792a34.133333 34.133333 0 0 1-33.8944-30.139733l-0.238933-3.9936v-99.771734a34.133333 34.133333 0 0 1 30.173866-33.8944l3.959467-0.238933h99.771733a34.133333 34.133333 0 0 1 33.928534 30.139733l0.2048 3.9936V591.428267a34.133333 34.133333 0 0 1-30.139734 33.8944l-3.9936 0.238933zM157.525333 305.220267m17.066667 0l674.781867 0q17.066667 0 17.066666-17.066667l0-5.256533q0-17.066667-17.066666-17.066667l-674.781867 0q-17.066667 0-17.066667 17.066667l0 5.256533q0 17.066667 17.066667 17.066667ZM157.525333 147.694933m17.066667 0l674.781867 0q17.066667 0 17.066666-17.066666l0-5.256534q0-17.066667-17.066666-17.066666l-674.781867 0q-17.066667 0-17.066667 17.066666l0 5.256534q0 17.066667 17.066667 17.066666Z"  horiz-adv-x="1024" />
      
      <glyph glyph-name="icon_yitijiao" unicode="&#59000;" d="M802.084571 896c33.645714 0 59.684571-26.624 63.488-59.392l0.438858-8.265143v-615.058286h-73.142858V822.930286H219.428571v-609.645715H146.285714V828.342857c0 33.645714 23.405714 62.829714 55.734857 67.145143L210.212571 896h591.872zM385.462857 237.714286H140.434286c-37.156571 0-67.291429-32.621714-67.291429-72.923429v-199.826286c0-40.228571 30.134857-72.923429 67.291429-72.923428h743.204571c37.156571 0 67.218286 32.694857 67.218286 72.923428V164.790857c0 40.228571-29.988571 72.923429-67.218286 72.923429h-245.028571l-6.144-0.585143a35.84 35.84 0 0 1-27.648-35.986286v-59.977143H419.181714V201.142857c0 20.187429-15.067429 36.571429-33.718857 36.571429z m497.883429-73.142857v-199.314286H140.653714V164.571429H351.817143v-41.910858c0-30.208 22.528-54.637714 50.541714-54.637714h219.501714l6.875429 0.512c24.576 3.657143 43.666286 26.404571 43.666286 54.125714V164.571429h211.017143z"  horiz-adv-x="1024" />
      
      <glyph glyph-name="icon_daichaxun" unicode="&#58993;" d="M892.342857 896a58.514286 58.514286 0 0 0 58.514286-58.514286v-906.971428a58.514286 58.514286 0 0 0-58.514286-58.514286H131.657143a58.514286 58.514286 0 0 0-58.514286 58.514286V837.485714a58.514286 58.514286 0 0 0 58.514286 58.514286h760.685714zM877.714286 822.857143H146.285714v-877.714286h731.428572V822.857143zM438.857143 676.571429a219.428571 219.428571 0 1 0 0-438.857143 219.428571 219.428571 0 0 0 0 438.857143z m0-73.142858a146.285714 146.285714 0 1 1 0-292.571428 146.285714 146.285714 0 0 1 0 292.571428zM811.666286 149.650286a36.571429 36.571429 0 0 0-51.2-7.168L556.032 296.521143l44.032 58.441143 204.434286-154.038857a36.571429 36.571429 0 0 0 7.168-51.2z"  horiz-adv-x="1024" />
      
      <glyph glyph-name="icon_daijiao" unicode="&#58994;" d="M772.827429 889.856H232.521143c-40.740571 0-75.410286-31.085714-75.410286-71.460571v-175.542858c0-159.158857 141.604571-286.573714 314.368-286.573714h62.317714c172.763429 0 314.368 127.414857 314.368 286.573714V818.468571c0 40.374857-34.596571 71.314286-75.337142 71.314286z m2.048-72.630857l0.146285-174.372572c0-117.028571-107.227429-213.430857-241.225143-213.430857h-62.317714c-133.997714 0-241.225143 96.475429-241.225143 213.430857v175.542858c0-1.243429 0.073143-1.609143 0.731429-1.682286h541.842286c1.389714 0 1.901714 0 2.048 0.512zM533.796571 429.348571h-62.317714c-172.763429 0-314.368-127.414857-314.368-286.573714v-176.347428c0-39.936 34.157714-70.656 74.532572-70.656h541.988571c40.228571 0 74.532571 30.72 74.532571 70.656v176.347428c0 159.158857-141.604571 286.646857-314.368 286.646857z m-303.250285-460.580571l-0.292572-0.585143v174.592c0 117.028571 107.227429 213.504 241.225143 213.504h62.317714c133.997714 0 241.225143-96.548571 241.225143-213.504v-176.347428c0 2.340571 0.146286 2.486857-1.462857 2.486857h-541.988571l-1.024-0.146286zM657.042286 40.813714H348.16c-26.185143 0-47.396571 19.017143-47.396571 42.642286 0 23.552 21.211429 42.642286 47.396571 42.642286h308.809143c26.185143 0 47.396571-19.090286 47.396571-42.642286 0-23.552-21.211429-42.642286-47.396571-42.642286"  horiz-adv-x="1024" />
      
      <glyph glyph-name="icon_tijiaoshibai" unicode="&#58995;" d="M512 896c282.7776 0 512-229.2224 512-512s-229.2224-512-512-512S0 101.2224 0 384 229.2224 896 512 896z m204.8-704H307.2a38.4 38.4 0 0 1 0-76.8h409.6a38.4 38.4 0 0 1 0 76.8zM294.4 614.4a38.4 38.4 0 0 1-38.4-38.4v-179.2a38.4 38.4 0 0 1 76.8 0v179.2a38.4 38.4 0 0 1-38.4 38.4z m435.2 0a38.4 38.4 0 0 1-38.4-38.4v-179.2a38.4 38.4 0 0 1 76.8 0v179.2a38.4 38.4 0 0 1-38.4 38.4z"  horiz-adv-x="1024" />
      
      <glyph glyph-name="icon_tijiaochenggong" unicode="&#58996;" d="M512 896c282.7776 0 512-229.2224 512-512s-229.2224-512-512-512S0 101.2224 0 384 229.2224 896 512 896z m155.264-666.24a151.3984 151.3984 0 0 0-144.3328-104.5504 152.5248 152.5248 0 0 0-142.0032 98.0736 37.9904 37.9904 0 0 1-49.1008 22.1184 37.9904 37.9904 0 0 1-22.1184-49.0752 227.4816 227.4816 0 0 1 82.2272-105.9328 226.5088 226.5088 0 0 1 130.9952-41.3952c48.9984 0 95.7696 15.36 135.1424 44.3648a227.4816 227.4816 0 0 1 81.5872 112.6912 38.0672 38.0672 0 1 1-72.3968 23.7056zM294.4 614.4a38.4 38.4 0 0 1-38.4-38.4v-179.2a38.4 38.4 0 0 1 76.8 0v179.2a38.4 38.4 0 0 1-38.4 38.4z m435.2 0a38.4 38.4 0 0 1-38.4-38.4v-179.2a38.4 38.4 0 0 1 76.8 0v179.2a38.4 38.4 0 0 1-38.4 38.4z"  horiz-adv-x="1024" />
      
      <glyph glyph-name="icon_wanchengjiaona" unicode="&#58997;" d="M512 896C397.897143 896 305.517714 794.843429 305.517714 670.061714S397.897143 444.123429 512 444.123429c114.102857 0 206.555429 101.156571 206.555429 226.011428C718.628571 794.843429 626.176 896 512.073143 896z m0-64c81.846857 0 148.114286-72.411429 148.114286-161.938286 0-89.453714-66.267429-161.938286-148.041143-161.938285-81.773714 0-148.114286 72.557714-148.114286 161.938285C363.958857 759.515429 430.299429 832 512 832zM898.194286 232.740571H125.805714c-29.037714 0-52.662857-25.746286-52.662857-57.636571v-220.891429c0-31.817143 23.625143-57.636571 52.662857-57.636571h772.388572c29.184 0 52.662857 25.819429 52.662857 57.636571v220.891429c0 31.817143-23.478857 57.636571-52.662857 57.636571z m-5.851429-63.926857v-208.164571H131.657143V168.813714h760.685714zM653.897143 554.788571a186.002286 186.002286 0 0 0-45.787429-47.396571l98.816-273.773714H317.147429l98.889142 273.773714a184.32 184.32 0 0 0-45.860571 47.396571L231.058286 169.618286h561.956571L653.897143 554.788571z"  horiz-adv-x="1024" />
      
      <glyph glyph-name="icon_weishuaman" unicode="&#58998;" d="M512 896c99.401143 0 194.633143-28.379429 276.48-81.042286a34.157714 34.157714 0 1 0-36.864-57.417143A443.757714 443.757714 0 1 1 955.684571 384 34.157714 34.157714 0 1 0 1024 384a512 512 0 1 0-512 512zM739.913143 301.641143a36.571429 36.571429 0 0 1 6.582857 72.557714l-6.582857 0.585143H494.445714l-171.739428 249.417143a36.571429 36.571429 0 0 1-45.129143 12.580571l-5.778286-3.218285a36.571429 36.571429 0 0 1-12.580571-45.129143l3.218285-5.778286 182.857143-265.216a36.571429 36.571429 0 0 1 22.966857-15.140571l7.094858-0.658286h264.557714zM826.002286 893.074286a36.571429 36.571429 0 0 0 35.035428-31.085715l0.365715-6.582857-4.096-128a36.571429 36.571429 0 0 0-29.988572-34.816l-6.363428-0.585143-131.949715-0.731428a36.571429 36.571429 0 0 0-6.948571 72.411428l6.582857 0.731429 96.694857 0.512 2.925714 92.745143a36.571429 36.571429 0 0 0 31.158858 35.108571l6.582857 0.292572z"  horiz-adv-x="1024" />
      
      <glyph glyph-name="icon_yishuaman" unicode="&#58999;" d="M512 896a512 512 0 1 0 0-1024A512 512 0 0 0 512 896z m0-73.142857a438.857143 438.857143 0 1 1 0-877.714286A438.857143 438.857143 0 0 1 512 822.857143zM512 744.813714c20.918857 0 38.4-15.067429 41.984-34.962285l0.731429-7.68v-275.529143h221.842285c20.992 0 38.4-15.067429 41.984-34.962286l0.731429-7.68a42.715429 42.715429 0 0 0-35.035429-41.984l-7.68-0.731429H512a42.715429 42.715429 0 0 0-41.984 35.108572L469.284571 384V702.171429c0 23.552 19.163429 42.642286 42.715429 42.642285z"  horiz-adv-x="1024" />
      
      <glyph glyph-name="icon_xingxing" unicode="&#58992;" d="M512 128l-239.735467-126.037333a34.133333 34.133333 0 0 0-49.527466 35.9936l45.789866 266.922666L74.581333 493.960533a34.133333 34.133333 0 0 0 18.926934 58.2144l268.014933 38.946134 119.876267 242.875733a34.133333 34.133333 0 0 0 61.201066 0l119.876267-242.858667 268.014933-38.9632a34.133333 34.133333 0 0 0 18.926934-58.2144L755.473067 304.896l45.789866-266.939733a34.133333 34.133333 0 0 0-49.527466-35.9936L512 128z"  horiz-adv-x="1024" />
      
      <glyph glyph-name="icon_zhanyongchaxun" unicode="&#58990;" d="M881.728-46.592a11.349333 11.349333 0 0 0-11.306667-11.306667H189.525333a56.789333 56.789333 0 0 0-56.746666 56.746667V770.453333a56.789333 56.789333 0 0 0 56.746666 56.746667h680.896a11.349333 11.349333 0 0 0 11.306667-11.306667v-862.506666z m-11.306667 941.866667H189.525333a124.992 124.992 0 0 1-124.8-124.8v-771.626667a124.992 124.992 0 0 1 124.8-124.842667h680.896a79.488 79.488 0 0 1 79.402667 79.402667V815.914667A79.488 79.488 0 0 1 870.4 895.253333zM573.952 122.944H262.144a35.605333 35.605333 0 0 1-31.616-17.706667 36.117333 36.117333 0 0 1 0-36.416c6.570667-11.221333 18.666667-18.005333 31.616-17.664h311.808c19.690667 0 35.648 16.064 35.648 35.882667 0 19.84-15.957333 35.904-35.626667 35.904M814.72 111.082667l-205.994667 236.992a35.904 35.904 0 1 1-54.186666-47.104l205.994666-237.013334a35.904 35.904 0 0 1 54.186667 47.146667M471.253333 720.362667c123.413333-8.618667 216.448-115.669333 207.829334-239.082667-8.64-123.392-115.669333-216.448-239.082667-207.829333-123.413333 8.64-216.469333 115.669333-207.829333 239.082666 8.618667 123.413333 115.669333 216.469333 239.082666 207.829334z m-4.48-63.829334a160 160 0 1 1-22.314666-319.232 160 160 0 0 1 22.314666 319.232z"  horiz-adv-x="1024" />
      
      <glyph glyph-name="icon_xiugai" unicode="&#58987;" d="M512-128c282.773333 0 512 229.226667 512 512S794.773333 896 512 896 0 666.773333 0 384s229.226667-512 512-512z m46.08 800.725333l81.941333-63.36c10.944-8.448 18.24-21.077333 20.544-35.584a59.349333 59.349333 0 0 0-8.298666-41.173333l-226.56-357.333333a46.848 46.848 0 0 0-15.36-15.146667l-118.613334-70.442667a42.154667 42.154667 0 0 0-18.133333-4.352c-7.893333-0.021333-15.573333 2.666667-21.994667 7.722667-11.178667 8.533333-17.578667 22.869333-16.896 37.866667l19.626667 149.717333c1.024 7.573333 3.626667 14.933333 7.573333 21.184l226.730667 357.354667c15.786667 24.896 46.869333 30.954667 69.44 13.546666zM720.917333 149.333333c14.229333 0 25.749333-14.336 25.749334-32s-11.52-32-25.749334-32H495.722667c-9.344-0.277333-18.090667 5.76-22.826667 15.786667a38.805333 38.805333 0 0 0 0 32.426667c4.736 10.026667 13.482667 16.064 22.826667 15.786666z"  horiz-adv-x="1024" />
      
      <glyph glyph-name="icon_check_normal" unicode="&#58988;" d="M512 896c282.784 0 512-229.216 512-512s-229.216-512-512-512S0 101.216 0 384 229.216 896 512 896z m0-64C264.576 832 64 631.424 64 384s200.576-448 448-448 448 200.576 448 448S759.424 832 512 832z"  horiz-adv-x="1024" />
      
      <glyph glyph-name="icon_zhanyongshenqing" unicode="&#58989;" d="M881.728-46.592a11.349333 11.349333 0 0 0-11.306667-11.306667H189.525333a56.789333 56.789333 0 0 0-56.746666 56.746667V770.453333a56.789333 56.789333 0 0 0 56.746666 56.746667h680.896a11.349333 11.349333 0 0 0 11.306667-11.306667v-862.506666z m-11.306667 941.866667H189.525333a124.992 124.992 0 0 1-124.8-124.8v-771.626667a124.992 124.992 0 0 1 124.8-124.842667h680.896a79.488 79.488 0 0 1 79.402667 79.402667V815.914667A79.488 79.488 0 0 1 870.4 895.253333zM765.952 101.610667H454.144a35.605333 35.605333 0 0 1-31.616-17.706667 36.117333 36.117333 0 0 1 0-36.416c6.570667-11.221333 18.666667-18.005333 31.616-17.664h311.808c19.690667 0 35.648 16.064 35.648 35.882667 0 19.84-15.957333 35.904-35.626667 35.904M580.757333 686.997333L282.24 256.277333l-20.245333-145.28L392.533333 182.186667 688.64 610.773333l-107.904 76.202667z m-332.138666-661.333333a48 48 0 0 0-28.586667 9.386667 53.269333 53.269333 0 0 0-21.973333 45.994666l25.536 181.76c1.28 9.237333 4.693333 18.133333 9.834666 25.749334l294.72 433.92c20.544 30.250667 60.949333 37.589333 90.282667 16.469333h0.021333l106.517334-76.949333c14.229333-10.24 23.701333-25.6 26.688-43.2 3.029333-17.493333-0.853333-35.498667-10.773334-50.026667l-294.528-433.92a59.157333 59.157333 0 0 0-19.968-18.368l-154.197333-85.525333c-7.424-3.413333-15.445333-5.205333-23.573333-5.290667z"  horiz-adv-x="1024" />
      
      <glyph glyph-name="icon_shanchu" unicode="&#58991;" d="M512 896c282.773333 0 512-229.226667 512-512S794.773333-128 512-128 0 101.226667 0 384 229.226667 896 512 896z m157.568-362.666667H374.144l-3.413333-0.106666c-28.288-1.92-50.688-26.816-50.730667-57.258667V121.386667l0.106667-3.626667C321.877333 87.808 345.450667 64 374.144 64h295.424l2.965333 0.128c17.621333 1.621333 31.445333 17.28 31.466667 36.352V496.853333l-0.128 3.136C702.336 518.656 687.573333 533.333333 669.568 533.333333z m-232.384-109.952a19.477333 19.477333 0 0 0 21.632 0c6.677333-4.373333 10.709333-12.458667 10.517333-21.077333v-207.872c0-13.12-9.557333-23.765333-21.333333-23.765333s-21.333333 10.645333-21.333333 23.765333v207.872c-0.192 8.618667 3.84 16.704 10.517333 21.077333z m128 0a19.477333 19.477333 0 0 0 21.632 0c6.677333-4.373333 10.709333-12.458667 10.517333-21.077333v-207.872c0-13.12-9.557333-23.765333-21.333333-23.765333s-21.333333 10.645333-21.333333 23.765333v207.872c-0.192 8.618667 3.84 16.704 10.517333 21.077333zM512 682.666667a42.666667 42.666667 0 0 1-42.666667-42.666667h-130.048c-14.4 0.277333-27.84-5.76-35.136-15.786667a26.794667 26.794667 0 0 1 0-32.426666c7.296-10.026667 20.736-16.064 35.136-15.786667h346.453334C707.605333 576 725.333333 590.336 725.333333 608s-17.728 32-39.594666 32H554.666667a42.666667 42.666667 0 0 1-42.666667 42.666667z"  horiz-adv-x="1024" />
      
      <glyph glyph-name="icon-zhengxu" unicode="&#58985;" d="M1166.5408 507.2896a52.224 52.224 0 0 0-73.728 8.8064L956.1088 690.4832v-765.6448c0-29.184-23.552-52.8384-52.5312-52.8384a52.736 52.736 0 0 0-52.6336 52.8384V843.1616A52.8384 52.8384 0 0 0 903.68 896c15.7696 0 31.1296-7.168 41.2672-20.1728l230.4-294.4a52.9408 52.9408 0 0 0-8.8064-74.1376zM41.7792 20.48h669.2864c23.1424 0 41.8816-23.8592 41.8816-53.248 0-29.4912-18.7392-53.248-41.8816-53.248H41.984C18.7392-86.016 0-62.2592 0-32.768c0 29.3888 18.7392 53.248 41.8816 53.248z m3.072 430.1824h448.2048c24.6784 0 44.7488-23.7568 44.7488-53.248 0-29.3888-20.0704-53.248-44.7488-53.248H44.7488c-24.6784 0-44.7488 23.8592-44.7488 53.248 0 29.4912 20.0704 53.248 44.8512 53.248zM711.0656 880.9472H41.7792C18.7392 880.9472 0 857.088 0 827.6992c0-29.3888 18.7392-53.248 41.8816-53.248h669.184c23.1424 0 41.8816 23.8592 41.8816 53.248 0 29.3888-18.7392 53.248-41.8816 53.248z"  horiz-adv-x="1228" />
      
      <glyph glyph-name="icon-daoxu" unicode="&#58986;" d="M1166.538467 260.711671a52.223896 52.223896 0 0 1-73.727853-8.806383L956.106888 77.518437V843.161706A52.735895 52.735895 0 0 1 903.678193 896a52.735895 52.735895 0 0 1-52.633495-52.838294v-918.321364a52.838294 52.838294 0 0 1 52.633495-52.838294c15.769568 0 31.129538 7.167986 41.267117 20.17276l230.399539 294.399411a52.940694 52.940694 0 0 1-8.806382 74.137452zM41.779116 20.481751h669.285062c23.142354 0 41.881516-23.859152 41.881516-53.247893 0-29.491141-18.739163-53.247894-41.881516-53.247894H41.983916C18.739163-86.014036 0-62.257283 0-32.766142c0 29.388741 18.739163 53.247894 41.881516 53.247893z m3.071994 430.18154h448.203904c24.678351 0 44.748711-23.756752 44.74871-53.247894 0-29.388741-20.07036-53.247894-44.74871-53.247893H44.748711c-24.678351 0-44.748711 23.859152-44.748711 53.247893 0 29.491141 20.07036 53.247894 44.85111 53.247894zM711.064178 880.94723H41.779116C18.739163 880.94723 0 857.088078 0 827.699337c0-29.388741 18.739163-53.247894 41.881516-53.247894h669.182662c23.142354 0 41.881516 23.859152 41.881516 53.247894 0 29.388741-18.739163 53.247894-41.881516 53.247893z"  horiz-adv-x="1228" />
      
      <glyph glyph-name="jingjiechenggong" unicode="&#58984;" d="M469.427745 750.991433a339.416057 339.416057 0 0 1-75.449192-16.950468l-13.355574 38.585191a378.800113 378.800113 0 0 0 84.185872 18.904057l4.618894-40.53878zM278.172142 659.804596l-28.599376 33.232794a441.082553 441.082553 0 0 0 35.38973 26.093844l24.881022-35.985248a394.733844 394.733844 0 0 1-31.671376-23.34139z m634.589503-190.376851l-42.005787-8.373561a365.422752 365.422752 0 0 1-9.03444 35.992511c-42.623092 139.409248-164.711489 239.260142-311.049078 254.380482l4.691518 42.19461a409.019007 409.019007 0 0 0 214.575206-88.064 400.616397 400.616397 0 0 0 132.742354-195.990695 407.52295 407.52295 0 0 0 10.072965-40.139347zM152.379915 204.255319a398.851631 398.851631 0 0 0-27.480965 67.286241 395.489135 395.489135 0 0 0-2.919489 221.743206 404.734184 404.734184 0 0 0 111.986383 185.721645l29.107745-30.168056c-100.11234-94.701844-137.550071-234.532312-97.679433-364.914383a357.484936 357.484936 0 0 1 24.626837-60.299802l-37.633816-19.368851z m754.172369 67.003007l-40.858327 11.532709a348.653844 348.653844 0 0 1 15.672284 78.9061l42.688454-2.28766a389.388709 389.388709 0 0 0-17.502411-88.151149zM266.24 67.308028a394.588596 394.588596 0 0 0-64.998582 61.527149l32.288681 26.616738a353.301787 353.301787 0 0 1 58.193702-55.08539l-25.491063-33.058497z m130.396596-66.451063a393.913191 393.913191 0 0 0-37.597504 13.086865l15.701334 37.474042a353.265475 353.265475 0 0 1 33.675801-11.728794l-11.779631-38.832113z m235.861333-1.496057c-68.027007-20.799546-140.302525-23.915121-208.990411-9.019915l9.760681 40.53878c61.483574-13.333787 126.19166-10.537759 187.12329 8.090326 90.68573 27.720624 166.251121 87.729929 212.788653 168.96l36.943886-19.891744c-51.969816-90.707518-136.359035-157.717787-237.626099-188.677447zM427.574468 844.509504a407.965957 407.965957 0 0 1-75.964823-21.242554l-15.396312 41.141561a444.982468 444.982468 0 0 0 82.878639 23.181617l8.482496-43.080624z m-197.828085-93.191263l-25.258667 35.65844a434.611745 434.611745 0 0 0 30.799887 23.283291l22.658723-37.626554a397.73322 397.73322 0 0 1-28.207205-21.315177z m533.104567 23.951433a476.406922 476.406922 0 0 1-32.775262 19.194553c-69.501277 37.067348-147.557674 56.08034-225.723007 54.976454L503.691801 892.317957C589.054184 893.53078 674.278582 872.774809 750.14173 832.315915a519.364085 519.364085 0 0 0 35.731064-20.93027l-23.021844-36.115971z m130.614468-115.457816a428.547631 428.547631 0 0 1-55.259688 60.648397l32.361305 30.494866a468.033362 468.033362 0 0 0 60.350639-66.247717l-37.452256-24.895546zM55.804369 321.92817l-42.368908-6.812142a497.569589 497.569589 0 0 0 0.755291 159.482554C23.319603 529.248227 41.475631 581.980596 68.150468 631.35773a509.124085 509.124085 0 0 0 120.781163 148.371064l27.626213-32.216056a466.363007 466.363007 0 0 1-110.62105-135.923291C57.460199 521.884142 40.132085 421.720965 55.804369 321.92817z m15.33095-183.412198a515.151887 515.151887 0 0 0-37.909787 85.137248l41.998525 14.248851a472.049475 472.049475 0 0 1 34.743376-78.012823l-38.832114-21.373276z m90.053901-111.499802a516.197674 516.197674 0 0 0-28.076482 30.422241l31.53339 27.880398a472.674043 472.674043 0 0 1 25.708936-27.851348l-29.165844-30.451291z m777.964028 82.457419l-35.869049 23.624624a476.406922 476.406922 0 0 1 21.758184 37.07461c58.375262 110.650099 70.314667 237.691461 33.624965 357.717333a477.111376 477.111376 0 0 1-24.808398 64.127092l38.657816 18.359376a520.58417 520.58417 0 0 0 27.059745-69.980596 514.113362 514.113362 0 0 0 20.748709-195.489588c-5.918865-68.353816-25.244142-133.969702-57.445674-195.01027a519.218837 519.218837 0 0 0-23.726298-40.422581z m-38.665078-52.717844l-31.010496 26.435177a448.744397 448.744397 0 0 1 22.767659 28.294355l33.116596-23.835234a490.70661 490.70661 0 0 0-24.873759-30.894298z m-158.008283-121.9141l-18.991206 37.328795a459.870411 459.870411 0 0 1 69.632 43.58173l25.374865-33.334468a502.123121 502.123121 0 0 0-76.015659-47.568794z m-81.063036-32.964085a494.076369 494.076369 0 0 0-191.785759-19.535886c-67.155518 6.347348-131.696567 26.079319-191.822071 58.665759a511.883801 511.883801 0 0 0-97.309049 68.426439l27.815035 31.98366a469.100936 469.100936 0 0 1 89.167887-62.696397c108.99427-59.065191 233.798809-71.796199 351.420822-35.832738l1.452483 0.443007 12.687432-40.952737-1.62678-0.501107zM303.28556 485.898894l6.892029 19.194553-34.082497 12.367886-6.971915-19.681134 34.162383-11.881305z m126.58383-77.947461l19.136454 7.451234-18.381163 47.459858 23.697248 13.399149-9.964028 17.683971-20.973844-11.881305-8.860142 23.036369 22.295603 6.819404-6.056851 19.790071-23.748085-7.262411-10.545022 27.764199-19.201815-7.240624 10.160113-26.507802-22.506213-6.884766-5.323347 24.118468-20.095092-4.321135 5.831716-25.78156-26.246355-8.024964 6.049589-19.797334 24.793872 7.581958 9.078015-39.376795-22.5861-12.593021 10.094752-18.105191 17.270014 9.833305 7.647319-33.196483 19.753759 4.669731-8.940028 38.955574 30.335092 17.023093 17.284539-44.612993z m-104.331801-65.615887l2.062524 8.155688L486.799433 394.603121l-5.57027 19.717446-146.991206-40.843801 6.427234 22.927433-4.125049 11.271262-21.95427 15.156652 8.947291 40.785703-11.329362 12.484085-40.524255-5.33061 2.592681-20.392851 26.072057 3.413333-7.596483-33.305418 4.357447-10.515972 21.678298-15.018667-13.108652-47.292822 19.855432-5.323348z m51.926241 114.070695l-7.945078 34.932199 25.20783 7.712681 10.552283-27.07427-27.815035-15.57061z m180.906666 57.358525l26.798298 54.671433 70.946497-15.214752 4.299347 20.218553-65.877333 14.263376 7.843404 16.071716-18.446525 8.932766-43.879489-89.734354 18.308539-9.208738z m-39.841588-112.647262l19.528624 6.194836-45.811291 146.845958 26.769248 1.118411-8.075801-36.188596 2.534582-9.019914 38.033248-41.686242-14.466724-27.204992 17.952681-9.550071 18.06888 33.319943-1.358071 11.888567-39.580142 43.029787 9.571858 43.937589-10.436085 12.52766-53.393248-1.968114-9.295887-13.551659 49.96539-159.700426z m139.917617 41.635404l19.390638 6.608794-36.137759 106.28539-19.390638-6.608794 36.137759-106.28539z m-59.987518-17.654922l5.047376 52.79773-0.203348 2.904965-10.24 56.559659-20.342014-3.485957 10.116539-55.455773-5.069163-51.221787 20.69061-2.1061z m-69.828085-250.771064l16.108028 12.898043-43.087886 54.489872 13.52261 36.26122-19.259915 7.095376-9.092539-24.648624-27.125107 34.307631 37.713703 11.532709 4.967489 16.558298-20.574411 23.319603-15.563348-13.188539 10.181901-11.692483-30.422241-9.295886-20.044256 25.309503-16.224227-12.484085 15.229277-19.267177-72.093957-22.034156-6.77583-12.099177 30.29878-135.632795 20.095092 4.321135-18.177815 80.329532 37.909787 5.664681 5.105475-62.907007 20.443688 1.692142-5.730043 73.887773-12.026553 9.535546-50.234099-7.843405-5.75183 26.268142 70.423603 21.525788 39.812539-50.473759-23.276028-62.478525 19.259914-7.102638 18.845958 50.873191 35.542241-44.721929z m137.717106 47.34366l-2.491007 128.871489 32.448454 16.071716 22.128568-101.455886-34.067972-1.074837 0.580993-20.552624 46.624681 1.038525 9.760681 12.781844-27.502752 126.467631-14.648284 6.913815-35.65844-17.502411-0.464794 25.367603-20.821333-0.443007 0.639092-34.888624-32.717163-15.926468 9.114326-18.628086 23.995007 11.663433 2.323972-119.35773 20.755971 0.653617z m-74.926298-14.248852l48.745305 47.714043-14.30695 14.75722-14.553872-14.248851-26.043007 82.944 20.05878 2.941276-3.064738 20.48-62.25339-8.780255 2.926752-20.748709 21.649248 2.977589 30.262468-96.009078-17.938156-17.328114 14.51756-14.699121z"  horiz-adv-x="1024" />
      
      <glyph glyph-name="icon_sms" unicode="&#58983;" d="M861.397333 896a161.28 161.28 0 0 0 161.28-161.28l-0.042666-511.488 1.365333 0.554667v-258.56a53.76 53.76 0 0 0-92.544-37.290667l-122.752 127.786667H161.28A161.28 161.28 0 0 0 0 217.002667V734.72A161.28 161.28 0 0 0 161.28 896h700.117333zM242.218667 559.872c-44.586667 0-80.725333-37.589333-80.725334-84.010667s36.138667-84.053333 80.725334-84.053333 80.725333 37.632 80.725333 84.053333-36.138667 84.053333-80.725333 84.053334z m269.098666 0c-44.586667 0-80.725333-37.589333-80.725333-84.010667s36.138667-84.053333 80.725333-84.053333 80.768 37.632 80.768 84.053333-36.181333 84.053333-80.768 84.053334z m269.141334 0c-44.586667 0-80.725333-37.589333-80.725334-84.010667s36.138667-84.053333 80.725334-84.053333 80.725333 37.632 80.725333 84.053333-36.138667 84.053333-80.725333 84.053334z"  horiz-adv-x="1024" />
      
      <glyph glyph-name="icon_baokao" unicode="&#58980;" d="M930.163898-90.158545h-465.454545a46.545455 46.545455 0 1 0 0 93.090909h465.454545a46.545455 46.545455 0 0 0 0-93.090909M930.163898 96.023273h-325.818182a46.545455 46.545455 0 1 0 0 93.090909h325.818182a46.545455 46.545455 0 0 0 0-93.090909M930.163898 282.205091h-186.181818a46.545455 46.545455 0 1 0 0 93.090909h186.181818a46.545455 46.545455 0 0 0 0-93.090909M622.405353 841.076364l-26.717091-38.120728 26.717091 38.167273zM595.827898 802.909091L173.660625 200.005818l-28.625454-203.357091 184.599273 99.607273 418.816 599.970909L595.827898 802.909091zM119.062807-111.941818a70.283636 70.283636 0 0 0-41.006545 13.032727A73.216 73.216 0 0 0 46.591535-35.002182l36.584727 252.602182c1.861818 12.8 6.749091 25.181091 14.103273 35.746909L519.72608 856.343273a92.997818 92.997818 0 0 0 129.396364 22.853818h0.046545l152.669091-106.914909c20.386909-14.242909 33.978182-35.560727 38.260364-60.043637a92.439273 92.439273 0 0 0-15.453091-69.492363l-422.167273-602.949818a83.874909 83.874909 0 0 0-28.625455-25.553455l-220.997818-118.830545a85.271273 85.271273 0 0 0-33.792-7.354182z"  horiz-adv-x="1024" />
      
      <glyph glyph-name="icon_up" unicode="&#58982;" d="M46.545455 337.449468c0 23.272473 23.272473 46.544947 46.544946 46.544947s46.544947-23.272473 46.544947-46.544947v-232.724734a93.089894 93.089894 0 0 1 93.089894-93.089894h558.539361a93.089894 93.089894 0 0 1 93.089894 93.089894v232.724734a46.544947 46.544947 0 1 0 93.089893 0v-232.724734a186.179787 186.179787 0 0 0-186.179787-186.179787H232.725242a186.179787 186.179787 0 0 0-186.179787 186.179787v232.724734zM465.449976 849.443882m46.544946 0l0 0q46.544947 0 46.544947-46.544946l0-558.539362q0-46.544947-46.544947-46.544947l0 0q-46.544947 0-46.544946 46.544947l0 558.539362q0 46.544947 46.544946 46.544946ZM513.67054 785.304946l-201.493074-201.53962a46.544947 46.544947 0 1 0-65.814555 65.8611l232.724734 232.724734a46.544947 46.544947 0 0 0 64.045847 1.675618l232.724734-209.452261a46.544947 46.544947 0 1 0-62.277139-69.165791l-199.910547 179.89622z"  horiz-adv-x="1024" />
      
      <glyph glyph-name="tab_icon_shangcilianxi" unicode="&#58977;" d="M874.666667-32.042667a10.666667 10.666667 0 0 0-10.624-10.624H224A53.376 53.376 0 0 0 170.666667 10.666667v725.333333C170.666667 765.418667 194.581333 789.333333 224 789.333333h640.042667a10.666667 10.666667 0 0 0 10.624-10.624v-810.752zM864.042667 853.333333H224A117.482667 117.482667 0 0 1 106.666667 736v-725.333333c0-64.682667 52.650667-117.333333 117.333333-117.333334h640.042667A74.709333 74.709333 0 0 1 938.666667-32.042667V778.709333A74.709333 74.709333 0 0 1 864.042667 853.333333zM316.8 608.128a53.333333 53.333333 0 1 1 0-106.666667 53.333333 53.333333 0 0 1 0 106.666667M748.096 588.544H452.928a33.749333 33.749333 0 1 1 0-67.477333h295.168a33.728 33.728 0 1 1 0 67.477333M316.8 368.853333a53.333333 53.333333 0 1 1 0-106.666666 53.333333 53.333333 0 0 1 0 106.666666M748.096 349.248H452.928a33.749333 33.749333 0 1 1 0-67.498667h295.168a33.749333 33.749333 0 0 1 0 67.498667"  horiz-adv-x="1024" />
      
      <glyph glyph-name="tab_icon_lishilianxi" unicode="&#58978;" d="M874.666667-32.042667a10.666667 10.666667 0 0 0-10.624-10.624H224A53.376 53.376 0 0 0 170.666667 10.666667v167.253333c0 5.845333 4.757333 10.624 10.602666 10.624h682.773334a10.666667 10.666667 0 0 0 10.624-10.624v-209.962667z m0 515.562667v-209.984a10.666667 10.666667 0 0 0-10.624-10.624H181.269333A10.624 10.624 0 0 0 170.666667 273.536v209.984c0 5.845333 4.757333 10.602667 10.602666 10.602667h682.773334c5.845333 0 10.624-4.757333 10.624-10.602667zM170.666667 736C170.666667 765.418667 194.581333 789.333333 224 789.333333h640.042667a10.666667 10.666667 0 0 0 10.624-10.624v-209.962666a10.666667 10.666667 0 0 0-10.624-10.624H181.269333A10.624 10.624 0 0 0 170.666667 568.746667V736z m768 42.709333A74.709333 74.709333 0 0 1 864.042667 853.333333H224A117.482667 117.482667 0 0 1 106.666667 736v-167.253333c0-15.850667 5.056-30.528 13.525333-42.624A74.026667 74.026667 0 0 1 106.666667 483.52v-209.984c0-18.261333 6.848-34.816 17.813333-47.808A73.877333 73.877333 0 0 1 106.666667 177.92v-167.253333c0-64.682667 52.650667-117.333333 117.333333-117.333334h640.042667A74.709333 74.709333 0 0 1 938.666667-32.042667V177.92c0 18.261333-6.848 34.816-17.813334 47.808A73.877333 73.877333 0 0 1 938.666667 273.536v209.984a74.026667 74.026667 0 0 1-13.525334 42.602667A74.090667 74.090667 0 0 1 938.666667 568.746667V778.709333zM299.008 623.552a53.333333 53.333333 0 1 1 0 106.666667 53.333333 53.333333 0 0 1 0-106.666667M299.008 319.146667a53.333333 53.333333 0 1 1 0 106.666666 53.333333 53.333333 0 0 1 0-106.666666M299.008 113.706667a53.333333 53.333333 0 1 1-0.021333-106.666667 53.333333 53.333333 0 0 1 0 106.666667"  horiz-adv-x="1024" />
      
      <glyph glyph-name="tab_icon_zongtigaikuo" unicode="&#58979;" d="M527.552 622.784a104.469333 104.469333 0 0 1-104.384-104.362667 104.469333 104.469333 0 0 1 104.384-104.32 104.469333 104.469333 0 0 1 104.32 104.32 104.469333 104.469333 0 0 1-104.32 104.362667m0-272.704c-92.842667 0-168.362667 75.52-168.362667 168.341333 0 92.842667 75.52 168.362667 168.362667 168.362667 92.8 0 168.32-75.52 168.32-168.362667 0-92.8-75.52-168.32-168.32-168.32M527.552 350.08c-126.72 0-229.802667-103.082667-229.802667-229.76 0-3.584 2.176-5.418667 4.629334-5.418667h450.304c2.474667 0 4.650667 1.834667 4.650666 3.904 0 128.213333-103.104 231.274667-229.802666 231.274667m225.152-299.178667H302.4c-37.632 0-68.437333 30.293333-68.650667 67.498667 0 163.882667 131.776 295.68 293.781334 295.68 162.026667 0 293.781333-131.797333 293.781333-293.76-0.213333-39.125333-31.018667-69.418667-68.629333-69.418667M224 789.333333A53.376 53.376 0 0 1 170.666667 736v-725.333333c0-29.418667 23.914667-53.333333 53.333333-53.333334h640.064a10.624 10.624 0 0 1 10.602667 10.624V778.709333A10.624 10.624 0 0 1 864.064 789.333333H224z m640.064-896H224A117.482667 117.482667 0 0 0 106.666667 10.666667v725.333333C106.666667 800.682667 159.317333 853.333333 224 853.333333h640.064A74.666667 74.666667 0 0 0 938.666667 778.709333v-810.752A74.666667 74.666667 0 0 0 864.064-106.666667z"  horiz-adv-x="1024" />
      
      <glyph glyph-name="tab_icon_cuowujiexi" unicode="&#58974;" d="M614.826667 438.634667H337.429333a32 32 0 0 0-32 32v7.722666a32 32 0 0 0 32 32H614.826667c17.642667 0 31.957333-14.336 31.957333-32v-7.744c0-17.664-14.314667-31.978667-31.957333-31.978666M719.829333 223.509333H337.429333a32 32 0 0 0-32 31.978667v7.744a32 32 0 0 0 32 31.978667h382.4c17.664 0 31.978667-14.314667 31.978667-32v-7.722667a32 32 0 0 0-32-32M529.493333 874.581333L521.877333 874.666667C292.544 874.666667 106.666667 688.768 106.666667 459.456V58.666667a160 160 0 0 1 160-160h595.776a74.666667 74.666667 0 0 1 74.666666 74.666666V459.456c0 226.474667-181.504 411.050667-407.616 415.146667z m-14.442666-64L521.728 810.666667l6.890667-0.064c190.954667-3.456 344.490667-159.573333 344.490666-351.146667V-26.666667a10.666667 10.666667 0 0 0-10.666666-10.666666H266.666667a96 96 0 0 0-96 96V459.456c0 191.68 153.557333 347.498667 344.384 351.146667z"  horiz-adv-x="1024" />
      
      <glyph glyph-name="tab_icon_zongtifenxi" unicode="&#58975;" d="M800.874667 832a66.346667 66.346667 0 0 0 66.261333-62.592l0.106667-3.776v-342.762667a32 32 0 0 0-63.850667-3.093333l-0.149333 3.093333V765.632a2.346667 2.346667 0 0 1-1.429334 2.197333L800.853333 768H301.525333a71.061333 71.061333 0 0 1-70.954666-67.157333l-0.106667-3.882667v-274.090667a32 32 0 0 0-63.850667-3.093333l-0.149333 3.093333V696.96a135.061333 135.061333 0 0 0 130.133333 134.954667L301.504 832h499.349333zM760.682667 288.768l-219.093334-219.072a35.690667 35.690667 0 0 0-26.709333-10.368 35.776 35.776 0 0 0-26.752 10.368l-219.050667 219.093333a35.84 35.84 0 1 0 50.688 50.688l195.114667-195.114666 195.093333 195.114666a35.882667 35.882667 0 0 0 50.709334-50.709333M959.04 308.266667a32 32 0 0 0 31.850667-28.928l0.149333-3.093334v-286.421333a74.666667 74.666667 0 0 0-70.570667-74.538667l-4.096-0.128H202.666667a160.021333 160.021333 0 0 0-159.936 154.837334L42.666667 75.157333V276.266667a32 32 0 0 0 63.850666 3.093333l0.149334-3.093333v-201.088a96.021333 96.021333 0 0 1 91.477333-95.893334l4.522667-0.106666h713.706666a10.666667 10.666667 0 0 1 10.496 8.746666l0.170667 1.92V276.266667a32 32 0 0 0 32 32z"  horiz-adv-x="1024" />
      
      <glyph glyph-name="tab_icon_mingshijianyi" unicode="&#58976;" d="M403.989333 534.613333H175.296a32 32 0 0 0-32 31.978667v3.541333a32 32 0 0 0 32 31.978667h228.693333c17.664 0 32-14.314667 32-32v-3.52c0-17.664-14.336-32-32-32M403.989333 332.096H175.296a32 32 0 0 0-32 32v3.52a32 32 0 0 0 32 31.957333h228.693333c17.664 0 32-14.293333 32-31.957333v-3.541333c0-17.664-14.336-31.978667-32-31.978667M917.290667-31.04a32 32 0 0 0 3.072-63.850667l-3.072-0.149333H97.877333a32 32 0 0 0-3.072 63.850667l3.093334 0.149333h819.392zM728.32 853.333333l-6.357333-0.085333c-133.973333-3.626667-240.64-113.024-240.64-246.890667v-532.138666c0-19.818667 16.085333-35.776 35.797333-35.776h340.821333a117.333333 117.333333 0 0 1 117.333334 117.333333V606.357333C975.274667 742.741333 864.704 853.333333 728.32 853.333333z m-5.077333-64.064L728.32 789.333333a182.976 182.976 0 0 0 182.976-182.976v-450.581333l-0.106667-3.498667a53.333333 53.333333 0 0 0-53.226666-49.834666H545.322667V606.357333c0 99.157333 79.04 180.245333 177.92 182.912zM296.426667 853.248L290.069333 853.333333h-0.426666C153.237333 853.333333 42.666667 742.741333 42.666667 606.357333v-450.581333a117.333333 117.333333 0 0 1 117.333333-117.333333h340.842667c19.754667 0 35.776 16 35.776 35.776V606.357333c0 133.866667-106.666667 243.285333-240.213334 246.890667z m-1.301334-64l5.44-0.213333c95.914667-5.461333 172.053333-85.333333 172.053334-182.677334l-0.021334-503.914666H160a53.333333 53.333333 0 0 0-53.333333 53.333333V606.357333a182.997333 182.997333 0 0 0 177.493333 182.890667L289.194667 789.333333l5.909333-0.085333z"  horiz-adv-x="1024" />
      
      <glyph glyph-name="shenqingchenggong" unicode="&#58973;" d="M512 896C229.248 896 0 666.7776 0 384c0-282.752 229.248-512 512-512s512 229.248 512 512C1024 666.7776 794.752 896 512 896z m198.656-320.0128a50.0224 50.0224 0 0 0 70.7072 0 50.0224 50.0224 0 0 0 0-70.72L468.1216 192.0128a49.8176 49.8176 0 0 0-35.3536-14.6176c-12.8 0-25.6 4.864-35.3664 14.6176l-0.0128 0.0384-154.752 154.752a50.0224 50.0224 0 0 0 0 70.7072 50.0224 50.0224 0 0 0 70.7072 0l119.424-119.424 277.888 277.888z"  horiz-adv-x="1024" />
      
      <glyph glyph-name="icon_yiyuyue_car" unicode="&#58972;" d="M1778.601042 827.749722c170.214307-43.687402 328.949885-113.904316 469.383711-199.874381l15.572542-9.6325 15.33173-9.732839 15.010646-9.772974 14.689563-9.793042 14.328344-9.752907 13.906923-9.692703 13.445365-9.612433 12.983807-9.451891 12.44198-9.311417 11.880083-9.090672 11.298121-8.869927 10.635885-8.588979 9.973652-8.287964 4.715911-4.013542 8.889995-7.766203c2.829547-2.508464 5.538688-4.976792 8.107355-7.36485l7.304646-6.923359 6.461802-6.48187 5.578823-5.980177 6.963495-7.946813 4.595505-5.016927 4.695844-4.876454 2.408125-2.388057 4.856386-4.655708 5.016927-4.535303 5.177469-4.37476 5.317943-4.274422 5.51862-4.133948 2.849615-2.026839 5.819635-3.973406 6.020313-3.853 6.30126-3.752662 6.542074-3.652323 6.802953-3.551984 7.083901-3.451646 7.384917-3.371375 3.812865-1.645553 7.866542-3.250968 4.053677-1.605417 8.388302-3.110495 4.334625-1.545214 8.930131-3.010156c1.525146-0.52176 3.050292-1.003385 4.615573-1.505078l9.512094-2.929886 9.913448-2.88975 10.354938-2.809479 10.796427-2.789411 5.558756-1.364605 11.478729-2.70914 11.960355-2.689073 18.863646-3.953339 20.047641-3.893136 21.251704-3.873067 22.515969-3.832933 15.753152-2.548599 16.335115-2.548599 25.686667-3.832932 36.523231-5.157401 39.192235-5.237672 20.66974-2.669006 10.575683-1.344536c226.403892-28.55635 380.082407-163.852843 456.540378-400.150116a40.135418 40.135418 0 1 0-76.3777-24.683282c-67.126486 207.50011-195.660162 320.661921-390.196533 345.184661l-53.33997 6.943427-29.961089 4.093813-28.496147 4.093813-27.091407 4.093812-25.726803 4.133948-24.422402 4.154016-23.158136 4.214219-21.954073 4.274422-13.987193 2.909818-13.505568 2.949953-6.562141 1.48501-12.763063 3.010157-12.321573 3.110495-11.860016 3.15063-11.438594 3.210833a711.641094 711.641094 0 0 0-5.558756 1.645552l-10.836563 3.33124-10.415141 3.411511-10.033854 3.491781-9.692703 3.612188-4.695844 1.806093-9.170943 3.752662a404.243928 404.243928 0 0 0-13.14435 5.819636l-8.368234 4.013541-8.107355 4.133948-7.826406 4.254355-7.545459 4.394828-7.324713 4.515234-7.083902 4.655709-6.883224 4.81625-3.371375 2.44826-6.582209 5.016928-6.421666 5.197536-6.241058 5.358079-6.120651 5.51862-5.980177 5.679161-5.859771 5.879839-5.759433 6.04038-5.679161 6.241058-5.618959 6.441734c-1.806094 2.147245-4.013542 4.495167-6.501938 7.063834l-5.458416 5.378146a323.290791 323.290791 0 0 1-3.050292 2.869682l-6.722683 6.120651-7.505323 6.582209-8.267896 6.983563-8.970266 7.344781-9.652568 7.706-10.294734 7.986949-16.535793 12.482114-11.699474 8.58898-12.221235 8.769589-12.682792 8.910062-13.104214 9.010402-13.4855 9.070604-13.846719 9.090672-14.147735 9.090672-14.408615 9.050537-7.304646 4.495167c-133.951957 81.976591-285.423024 148.982671-447.449706 190.583032C1317.846445 863.129093 868.831458 775.73422 435.730164 418.990559l-13.124282-10.896766-2.107109-1.645552c-34.33585-25.044501-80.652122-40.998329-138.186244-51.313132-20.609537-3.672391-41.941512-6.522005-65.320392-8.869927l-24.984298-2.247584-49.808054-3.873067-8.22776-0.762573-0.26088-0.341151c-46.276137-55.125996-45.011871-116.111764 6.702614-193.031292l3.77273-5.51862a40.135418 40.135418 0 0 0 6.000245-32.770569l-1.003386-3.33124-71.140028-204.891308a40.135418 40.135418 0 0 0-76.738919 23.318678l0.923115 3.010156 64.597955 186.168136-0.602032 0.96325C1.444875 216.64785 4.274422 314.518066 77.481424 396.755537l1.244198 1.40474 1.14386 1.565281c0.682302 0.862911 1.384672 1.685688 2.107109 2.488396l2.287719 2.327855c4.274422 4.013542 8.629115 6.622344 13.324958 8.629114 4.715912 2.026839 9.351552 3.250969 14.830037 4.234287l5.25774 0.842844 6.020313 0.762573 7.063833 0.722437 67.046216 5.358078a820.508415 820.508415 0 0 1 70.33732 9.090673c43.868012 7.846474 78.243997 19.265001 100.940575 34.295714l3.311172 2.327854 12.421912 10.274667C838.32854 854.540113 1313.732564 947.052251 1778.580974 827.76979z m614.27257-660.749384l2.949953-1.003385 378.47699-147.196645c40.396298-15.692948 30.382511-74.631809-11.438594-77.421221l-3.110495-0.120407h-2335.881318a40.135418 40.135418 0 0 0-2.990089 80.170498l3.010157 0.100338 2121.899338 0.020068-179.064167 69.63495a40.135418 40.135418 0 0 0-23.880574 48.96521l1.023453 2.97002a40.135418 40.135418 0 0 0 48.985278 23.880574zM1778.601042 827.749722c170.214307-43.687402 328.949885-113.904316 469.383711-199.874381l15.572542-9.6325 15.33173-9.732839 15.010646-9.772974 14.689563-9.793042 14.328344-9.752907 13.906923-9.692703 13.445365-9.612433 12.983807-9.451891 12.44198-9.311417 11.880083-9.090672 11.298121-8.869927 10.635885-8.588979 9.973652-8.287964 4.715911-4.013542 8.889995-7.766203c2.829547-2.508464 5.538688-4.976792 8.107355-7.36485l7.304646-6.923359 6.461802-6.48187 5.578823-5.980177 6.963495-7.946813 4.595505-5.016927 4.695844-4.876454 2.408125-2.388057 4.856386-4.655708 5.016927-4.535303 5.177469-4.37476 5.317943-4.274422 5.51862-4.133948 2.849615-2.026839 5.819635-3.973406 6.020313-3.853 6.30126-3.752662 6.542074-3.652323 6.802953-3.551984 7.083901-3.451646 7.384917-3.371375 3.812865-1.645553 7.866542-3.250968 4.053677-1.605417 8.388302-3.110495 4.334625-1.545214 8.930131-3.010156c1.525146-0.52176 3.050292-1.003385 4.615573-1.505078l9.512094-2.929886 9.913448-2.88975 10.354938-2.809479 10.796427-2.789411 5.558756-1.364605 11.478729-2.70914 11.960355-2.689073 18.863646-3.953339 20.047641-3.893136 21.251704-3.873067 22.515969-3.832933 15.753152-2.548599 16.335115-2.548599 25.686667-3.832932 36.523231-5.157401 39.192235-5.237672 20.66974-2.669006 10.575683-1.344536c226.403892-28.55635 380.082407-163.852843 456.540378-400.150116a40.135418 40.135418 0 1 0-76.3777-24.683282c-67.126486 207.50011-195.660162 320.661921-390.196533 345.184661l-53.33997 6.943427-29.961089 4.093813-28.496147 4.093813-27.091407 4.093812-25.726803 4.133948-24.422402 4.154016-23.158136 4.214219-21.954073 4.274422-13.987193 2.909818-13.505568 2.949953-6.562141 1.48501-12.763063 3.010157-12.321573 3.110495-11.860016 3.15063-11.438594 3.210833a711.641094 711.641094 0 0 0-5.558756 1.645552l-10.836563 3.33124-10.415141 3.411511-10.033854 3.491781-9.692703 3.612188-4.695844 1.806093-9.170943 3.752662a404.243928 404.243928 0 0 0-13.14435 5.819636l-8.368234 4.013541-8.107355 4.133948-7.826406 4.254355-7.545459 4.394828-7.324713 4.515234-7.083902 4.655709-6.883224 4.81625-3.371375 2.44826-6.582209 5.016928-6.421666 5.197536-6.241058 5.358079-6.120651 5.51862-5.980177 5.679161-5.859771 5.879839-5.759433 6.04038-5.679161 6.241058-5.618959 6.441734c-1.806094 2.147245-4.013542 4.495167-6.501938 7.063834l-5.458416 5.378146a323.290791 323.290791 0 0 1-3.050292 2.869682l-6.722683 6.120651-7.505323 6.582209-8.267896 6.983563-8.970266 7.344781-9.652568 7.706-10.294734 7.986949-16.535793 12.482114-11.699474 8.58898-12.221235 8.769589-12.682792 8.910062-13.104214 9.010402-13.4855 9.070604-13.846719 9.090672-14.147735 9.090672-14.408615 9.050537-7.304646 4.495167c-133.951957 81.976591-285.423024 148.982671-447.449706 190.583032C1317.846445 863.129093 868.831458 775.73422 435.730164 418.990559l-13.124282-10.896766-2.107109-1.645552c-34.33585-25.044501-80.652122-40.998329-138.186244-51.313132-20.609537-3.672391-41.941512-6.522005-65.320392-8.869927l-24.984298-2.247584-49.808054-3.873067-8.22776-0.762573-0.26088-0.341151c-46.276137-55.125996-45.011871-116.111764 6.702614-193.031292l3.77273-5.51862a40.135418 40.135418 0 0 0 6.000245-32.770569l-1.003386-3.33124-71.140028-204.891308a40.135418 40.135418 0 0 0-76.738919 23.318678l0.923115 3.010156 64.597955 186.168136-0.602032 0.96325C1.444875 216.64785 4.274422 314.518066 77.481424 396.755537l1.244198 1.40474 1.14386 1.565281c0.682302 0.862911 1.384672 1.685688 2.107109 2.488396l2.287719 2.327855c4.274422 4.013542 8.629115 6.622344 13.324958 8.629114 4.715912 2.026839 9.351552 3.250969 14.830037 4.234287l5.25774 0.842844 6.020313 0.762573 7.063833 0.722437 67.046216 5.358078a820.508415 820.508415 0 0 1 70.33732 9.090673c43.868012 7.846474 78.243997 19.265001 100.940575 34.295714l3.311172 2.327854 12.421912 10.274667C838.32854 854.540113 1313.732564 947.052251 1778.580974 827.76979z m614.27257-660.749384l2.949953-1.003385 378.47699-147.196645c40.396298-15.692948 30.382511-74.631809-11.438594-77.421221l-3.110495-0.120407h-2335.881318a40.135418 40.135418 0 0 0-2.990089 80.170498l3.010157 0.100338 2121.899338 0.020068-179.064167 69.63495a40.135418 40.135418 0 0 0-23.880574 48.96521l1.023453 2.97002a40.135418 40.135418 0 0 0 48.985278 23.880574z"  horiz-adv-x="3372" />
      
      <glyph glyph-name="icon_dianhua" unicode="&#58971;" d="M512 896c282.773333 0 512-229.226667 512-512S794.773333-128 512-128 0 101.226667 0 384 229.226667 896 512 896z m-105.685333-209.6c-22.997333 4.096-42.517333-4.288-72.96-25.237333l-8.618667-5.952-7.978667-5.376c-60.16-39.744-34.794667-203.306667 63.402667-356.672 97.898667-153.002667 233.92-242.517333 293.269333-203.413334 3.776 2.474667 18.432 11.626667 20.096 12.693334a103.573333 103.573333 0 0 1 47.232 48.426666c10.026667 25.536 2.346667 54.165333-23.488 86.485334-41.792 52.053333-73.386667 64.362667-109.226666 46.933333-5.653333-2.773333-11.093333-5.909333-16.384-9.386667l-15.786667-10.517333c-12.074667-7.786667-48.789333 29.802667-92.736 98.410667-43.434667 67.925333-62.122667 116.714667-51.114667 124.010666l15.850667 10.304c44.992 30.250667 52.650667 63.530667 17.685333 133.717334-10.368 27.52-32.362667 48.128-59.242666 55.573333z"  horiz-adv-x="1024" />
      
      <glyph glyph-name="icon_car1" unicode="&#58970;" d="M828.416 388.608c23.04 0 44.032-4.608 62.976-9.216-9.216 18.432-23.04 34.816-41.984 46.592 28.16 2.56 51.2 25.6 51.2 55.808 0 32.768-23.04 55.808-55.808 55.808h-62.976l-41.984 158.208c-7.168 25.6-25.6 46.592-53.76 53.76-156.16 41.984-321.024 41.984-477.184 0-23.04-7.168-44.032-28.16-53.76-53.76L116.224 537.6H76.8C44.032 537.6 20.992 514.56 20.992 481.792c0-23.04 13.824-44.032 37.376-51.2C23.04 412.16 2.56 374.784 2.56 332.79999999999995v-148.992c0-34.816 23.04-62.976 55.808-72.192v-39.424c0-20.992 16.384-37.376 37.376-37.376h111.616c20.992 0 37.376 16.384 37.376 37.376v37.376h342.016c0 11.776-2.56 23.04-2.56 37.376 0 134.656 109.568 241.664 244.224 241.664zM156.16 221.18399999999997c-34.816 0-62.976 28.16-62.976 62.976s28.16 62.976 62.976 62.976 62.976-28.16 62.976-62.976-28.16-62.976-62.976-62.976z m32.256 248.832L230.4 686.592C302.592 707.5840000000001 376.832 716.8 451.584 716.8s148.992-9.216 221.184-30.208l41.984-216.576H188.416zM807.424 344.576c-102.4 0-186.368-83.968-186.368-186.368s83.968-186.368 186.368-186.368 186.368 83.968 186.368 186.368-83.968 186.368-186.368 186.368z m109.568-219.136H793.6c-9.216 0-16.384 7.168-16.384 16.384v125.952c0 7.168 7.168 13.824 16.384 13.824s16.384-7.168 16.384-16.384v-107.008h107.008c9.216 0 16.384-7.168 16.384-16.384s-7.168-16.384-16.384-16.384z"  horiz-adv-x="1024" />
      
      <glyph glyph-name="icon_close_other" unicode="&#58958;" d="M510.985846-125.686154C228.804923-125.686154 0.295385 102.823385 0.295385 385.014154 0.295385 667.195077 228.804923 895.704615 510.985846 895.704615c282.190769 0 510.700308-228.519385 510.700308-510.700307 0-282.190769-228.509538-510.700308-510.700308-510.700308z m0 974.660923c-256.216615 0-463.950769-207.753846-463.950769-463.960615 0-256.216615 207.734154-463.960615 463.950769-463.960616s463.960615 207.744 463.960616 463.95077c0 256.226462-207.744 463.970462-463.95077 463.970461zM314.673231 218.555077l363.382154 363.382154 30.464-30.483693-363.382154-363.362461zM678.055385 188.091077L314.673231 551.463385l30.483692 30.473846 363.362462-363.382154z"  horiz-adv-x="1024" />
      
      <glyph glyph-name="icon_close" unicode="&#58957;" d="M578.56 386.914462L1003.756308 812.189538a49.191385 49.191385 0 0 1 0 69.435077 49.191385 49.191385 0 0 1-69.435077 0L509.085538 456.349538 83.810462 881.506462a49.191385 49.191385 0 0 1-69.435077 0 49.191385 49.191385 0 0 1 0-69.435077l425.275077-425.156923L14.493538-38.360615a49.191385 49.191385 0 0 1 34.697847-83.810462c12.642462 0 25.166769 4.804923 34.73723 14.375385L509.085538 317.44l425.275077-425.275077c9.570462-9.570462 22.055385-14.375385 34.737231-14.375385a49.191385 49.191385 0 0 1 34.737231 83.810462L578.481231 386.914462z"  horiz-adv-x="1024" />
      
      <glyph glyph-name="arrow_under" unicode="&#58956;" d="M511.094154 147.692308L157.538462 522.24l85.385846 86.646154 271.753846-287.901539L779.264 620.307692 866.461538 527.950769z"  horiz-adv-x="1024" />
      
      <glyph glyph-name="arrow_on" unicode="&#58955;" d="M511.094154 620.307692L157.538462 245.76l85.385846-86.646154 271.753846 287.901539 264.585846-299.323077L866.461538 240.049231z"  horiz-adv-x="1024" />
      
      <glyph glyph-name="icon_changdi" unicode="&#58949;" d="M514.446222 725.333333c158.378667 0 286.72-121.116444 286.862222-270.933333 0-57.457778-19.000889-110.592-51.256888-154.453333-1.393778-2.275556-2.844444-4.664889-4.664889-6.940445l-195.356445-232.334222c-9.813333-12.231111-22.584889-18.005333-35.527111-18.005333-12.942222 0-25.884444 5.859556-35.584 18.005333l-195.441778 232.277333c-1.934222 2.190222-3.271111 4.664889-4.864 7.196445A259.84 259.84 0 0 0 227.555556 454.371556C227.555556 604.216889 356.124444 725.333333 514.446222 725.333333z m0-128.739555a142.222222 142.222222 0 1 1 0-284.444445 142.222222 142.222222 0 0 1 0 284.444445z"  horiz-adv-x="1024" />
      
      <glyph glyph-name="icon_check" unicode="&#58950;" d="M512 896a512 512 0 1 0 0-1024 512 512 0 0 0 0 1024z m0-64a448 448 0 1 1 0-896 448 448 0 0 1 0 896zM512 384m-320 0a320 320 0 1 1 640 0 320 320 0 1 1-640 0Z"  horiz-adv-x="1024" />
      
      <glyph glyph-name="icon_schedule_disabled" unicode="&#58951;" d="M512 384m-443.733333 0a443.733333 443.733333 0 1 1 887.466666 0 443.733333 443.733333 0 1 1-887.466666 0ZM512 896c282.760533 0 512-229.239467 512-512 0-282.760533-229.239467-512-512-512-282.760533 0-512 229.239467-512 512C0 666.760533 229.239467 896 512 896z m0-136.533333C304.64 759.466667 136.533333 591.36 136.533333 384s168.106667-375.466667 375.466667-375.466667 375.466667 168.106667 375.466667 375.466667-168.106667 375.466667-375.466667 375.466667z"  horiz-adv-x="1024" />
      
      <glyph glyph-name="icon_shangshuo" unicode="&#58952;" d="M684.637091 594.757818v-148.48H339.316364V622.312727a181.527273 181.527273 0 0 0 25.041454 92.392728C394.705455 766.138182 449.536 800.581818 511.953455 800.581818c62.510545 0 117.341091-34.443636 147.642181-85.922909a181.527273 181.527273 0 0 0 25.041455-92.392727v-27.508364z m-172.683636-565.248c-61.672727 0-111.709091 52.922182-111.709091 118.132364 0 65.256727 50.036364 118.225455 111.709091 118.225454 61.765818 0 111.709091-52.968727 111.70909-118.225454 0-65.210182-49.943273-118.132364-111.70909-118.132364z m297.751272 416.814546h-32.674909V622.266182a278.760727 278.760727 0 0 1-38.446545 141.870545C692.037818 843.124364 607.883636 896 512 896 416.116364 896 331.869091 843.124364 285.323636 764.136727a278.853818 278.853818 0 0 1-38.4-141.870545V446.277818h-32.721454c-41.192727 0-74.612364-34.443636-74.612364-77.079273v-420.119272C139.636364-93.509818 173.056-128 214.248727-128h595.456c41.239273 0 74.658909 34.490182 74.658909 77.079273v420.119272c0 42.589091-33.419636 77.125818-74.658909 77.125819z"  horiz-adv-x="1024" />
      
      <glyph glyph-name="icon_xiangmu" unicode="&#58953;" d="M876.088889 251.249778c10.837333-17.208889 5.688889-39.082667-11.264-50.545778l-3.328-2.048-326.087111-179.143111a43.605333 43.605333 0 0 0-37.461334-1.991111l-3.925333 1.848889L162.759111 198.542222c-19.655111 10.609778-26.368 34.133333-15.018667 52.48 10.695111 17.294222 33.592889 23.893333 52.622223 15.729778l3.527111-1.706667 310.528-167.907555 305.464889 167.793778c19.541333 10.723556 44.743111 4.608 56.234666-13.653334z m0 142.222222c10.837333-17.208889 5.688889-39.082667-11.264-50.545778l-3.328-2.048-326.087111-179.143111a43.605333 43.605333 0 0 0-37.461334-1.991111l-3.925333 1.848889L162.759111 340.764444c-19.655111 10.609778-26.368 34.133333-15.018667 52.48 10.695111 17.294222 33.592889 23.893333 52.622223 15.729778l3.527111-1.706666 310.528-167.936 305.464889 167.822222c19.541333 10.723556 44.743111 4.608 56.234666-13.653334zM501.873778 751.616a16.469333 16.469333 0 0 0 16.298666 0l350.151112-200.533333a16.412444 16.412444 0 0 0 0-28.472889l-350.947556-200.533334a16.412444 16.412444 0 0 0-16.327111 0L150.471111 522.581333a16.412444 16.412444 0 0 0 0.028445 28.501334z"  horiz-adv-x="1024" />
      
      <glyph glyph-name="icon-rili" unicode="&#58954;" d="M798.2592 896a204.8 204.8 0 0 0 204.8-204.8v-614.4a204.8 204.8 0 0 0-204.8-204.8H230.4a204.8 204.8 0 0 0-204.8 204.8V691.2a204.8 204.8 0 0 0 204.8 204.8h567.8592z m127.9744-372.352H102.4V76.8a128 128 0 0 1 122.4448-127.872L230.4-51.2h567.8592a128 128 0 0 1 127.872 122.4448l0.128 5.5552-0.0256 446.848zM572.5184 221.0816a34.9184 34.9184 0 0 0 0-69.8112h-256a34.9184 34.9184 0 1 0 0 69.8112h256zM712.1408 384a34.9184 34.9184 0 1 0 0-69.8112H316.5184a34.9184 34.9184 0 1 0 0 69.8112h395.6224zM281.6 819.2H230.4a128 128 0 0 1-127.872-122.4448L102.4 691.2v-97.7408h823.8336V691.2A128 128 0 0 1 803.84 819.072L798.2592 819.2h-52.1216v-75.9552c0-19.8144-13.184-35.8656-29.44-35.8656h-10.88c-16.2816 0-29.4656 16.0512-29.4656 35.84L676.3264 819.2H351.4112v-75.9552c0-19.8144-13.184-35.8656-29.4656-35.8656h-10.88c-16.2816 0-29.4656 16.0512-29.4656 35.84V819.2z"  horiz-adv-x="1024" />
      
    </font>
</defs>
</svg>
